<svg width="42" height="43" viewBox="0 0 42 43" fill="none" xmlns="http://www.w3.org/2000/svg">
<g filter="url(#filter0_d_2033_192)">
<rect width="42" height="42" rx="5" fill="#3F3F3F"/>
<path d="M20.2144 18.5251C19.9215 18.2322 19.9215 17.7574 20.2144 17.4645C20.5073 17.1716 20.9822 17.1716 21.275 17.4645L23.75 19.9394L26.2249 17.4645C26.5177 17.1716 26.9926 17.1716 27.2855 17.4645C27.5784 17.7573 27.5784 18.2322 27.2855 18.5251L24.8105 21L27.2855 23.4749C27.5784 23.7678 27.5784 24.2427 27.2855 24.5355C26.9926 24.8284 26.5177 24.8284 26.2249 24.5355L23.75 22.0607L21.275 24.5355C20.9822 24.8284 20.5073 24.8284 20.2145 24.5355C19.9215 24.2426 19.9215 23.7678 20.2145 23.4749L22.6893 21.0001L20.2144 18.5251Z" fill="white"/>
<path fill-rule="evenodd" clip-rule="evenodd" d="M17.1213 13.3787L9.5 21L17.1213 28.6213C17.684 29.184 18.447 29.5 19.2427 29.5H29.5C31.1569 29.5 32.5 28.1569 32.5 26.5V15.5C32.5 13.8431 31.1569 12.5 29.5 12.5H19.2427C18.447 12.5 17.684 12.8161 17.1213 13.3787ZM29.5 28.2H19.2427C18.7917 28.2 18.3594 28.0209 18.0405 27.7021L11.3385 21L18.0405 14.2979C18.3594 13.9791 18.7917 13.8 19.2427 13.8H29.5C30.4388 13.8 31.2 14.5611 31.2 15.5V26.5C31.2 27.4389 30.4388 28.2 29.5 28.2Z" fill="white"/>
</g>
<defs>
<filter id="filter0_d_2033_192" x="0" y="0" width="42" height="43" filterUnits="userSpaceOnUse" color-interpolation-filters="sRGB">
<feFlood flood-opacity="0" result="BackgroundImageFix"/>
<feColorMatrix in="SourceAlpha" type="matrix" values="0 0 0 0 0 0 0 0 0 0 0 0 0 0 0 0 0 0 127 0" result="hardAlpha"/>
<feOffset dy="1"/>
<feColorMatrix type="matrix" values="0 0 0 0 0 0 0 0 0 0 0 0 0 0 0 0 0 0 0.3 0"/>
<feBlend mode="normal" in2="BackgroundImageFix" result="effect1_dropShadow_2033_192"/>
<feBlend mode="normal" in="SourceGraphic" in2="effect1_dropShadow_2033_192" result="shape"/>
</filter>
</defs>
</svg>
