<svg width="30" height="30" viewBox="0 0 30 30" fill="none" xmlns="http://www.w3.org/2000/svg">
<path d="M10.25 23.25V19.4875C9.41875 18.7292 8.77344 17.8432 8.31406 16.8297C7.85469 15.8161 7.625 14.7479 7.625 13.625C7.625 11.4375 8.39062 9.57812 9.92188 8.04688C11.4531 6.51562 13.3125 5.75 15.5 5.75C17.3229 5.75 18.938 6.28594 20.3453 7.35781C21.7526 8.42969 22.6677 9.82604 23.0906 11.5469L24.2281 16.0312C24.301 16.3083 24.25 16.5599 24.075 16.7859C23.9 17.012 23.6667 17.125 23.375 17.125H21.625V19.75C21.625 20.2312 21.4536 20.6432 21.1109 20.9859C20.7682 21.3286 20.3562 21.5 19.875 21.5H18.125V23.25H16.375V19.75H19.875V15.375H22.2375L21.4062 11.9844C21.0708 10.6573 20.3562 9.57812 19.2625 8.74688C18.1687 7.91562 16.9146 7.5 15.5 7.5C13.8083 7.5 12.3646 8.09063 11.1688 9.27187C9.97292 10.4531 9.375 11.8896 9.375 13.5812C9.375 14.4563 9.55365 15.2875 9.91094 16.075C10.2682 16.8625 10.775 17.5625 11.4312 18.175L12 18.7V23.25H10.25ZM15.5 18C15.7479 18 15.9557 17.9161 16.1234 17.7484C16.2911 17.5807 16.375 17.3729 16.375 17.125C16.375 16.8771 16.2911 16.6693 16.1234 16.5016C15.9557 16.3339 15.7479 16.25 15.5 16.25C15.2521 16.25 15.0443 16.3339 14.8766 16.5016C14.7089 16.6693 14.625 16.8771 14.625 17.125C14.625 17.3729 14.7089 17.5807 14.8766 17.7484C15.0443 17.9161 15.2521 18 15.5 18ZM14.8438 15.2H16.1781C16.1781 14.8354 16.2255 14.5401 16.3203 14.3141C16.4151 14.088 16.6083 13.8146 16.9 13.4938C17.1625 13.2021 17.4177 12.9068 17.6656 12.6078C17.9135 12.3089 18.0375 11.9187 18.0375 11.4375C18.0375 10.825 17.8005 10.3073 17.3266 9.88438C16.8526 9.46146 16.2656 9.25 15.5656 9.25C14.9823 9.25 14.4536 9.41771 13.9797 9.75312C13.5057 10.0885 13.174 10.526 12.9844 11.0656L14.1875 11.5687C14.2896 11.2479 14.4682 10.9891 14.7234 10.7922C14.9786 10.5953 15.2594 10.4969 15.5656 10.4969C15.8865 10.4969 16.1526 10.5844 16.3641 10.7594C16.5755 10.9344 16.6812 11.1604 16.6812 11.4375C16.6812 11.7438 16.5901 12.0172 16.4078 12.2578C16.2255 12.4984 16.0104 12.7427 15.7625 12.9906C15.4708 13.2969 15.2448 13.6031 15.0844 13.9094C14.924 14.2156 14.8438 14.6458 14.8438 15.2Z" fill="white"/>
</svg>
