<svg width="40" height="40" viewBox="0 0 40 40" fill="none" xmlns="http://www.w3.org/2000/svg">
<circle cx="20" cy="20" r="20" fill="#D9D9D9" fill-opacity="0.3"/>
<path d="M20.3078 25.8974C21.7181 25.8974 22.9168 25.4038 23.904 24.4167C24.8911 23.4295 25.3847 22.2308 25.3847 20.8205C25.3847 19.4102 24.8911 18.2115 23.904 17.2243C22.9168 16.2372 21.7181 15.7436 20.3078 15.7436C18.8976 15.7436 17.6988 16.2372 16.7117 17.2243C15.7245 18.2115 15.2309 19.4102 15.2309 20.8205C15.2309 22.2308 15.7245 23.4295 16.7117 24.4167C17.6988 25.4038 18.8976 25.8974 20.3078 25.8974ZM20.3078 23.641C19.5181 23.641 18.8505 23.3684 18.3052 22.8231C17.7599 22.2778 17.4873 21.6102 17.4873 20.8205C17.4873 20.0308 17.7599 19.3632 18.3052 18.8179C18.8505 18.2726 19.5181 18 20.3078 18C21.0976 18 21.7651 18.2726 22.3104 18.8179C22.8557 19.3632 23.1283 20.0308 23.1283 20.8205C23.1283 21.6102 22.8557 22.2778 22.3104 22.8231C21.7651 23.3684 21.0976 23.641 20.3078 23.641ZM11.2822 29.8461C10.6617 29.8461 10.1305 29.6252 9.68858 29.1833C9.2467 28.7414 9.02576 28.2102 9.02576 27.5897V14.0513C9.02576 13.4308 9.2467 12.8996 9.68858 12.4577C10.1305 12.0158 10.6617 11.7949 11.2822 11.7949H14.836L16.9232 9.53845H23.6924L25.7796 11.7949H29.3335C29.954 11.7949 30.4852 12.0158 30.927 12.4577C31.3689 12.8996 31.5899 13.4308 31.5899 14.0513V27.5897C31.5899 28.2102 31.3689 28.7414 30.927 29.1833C30.4852 29.6252 29.954 29.8461 29.3335 29.8461H11.2822ZM11.2822 27.5897H29.3335V14.0513H24.7642L22.7052 11.7949H17.9104L15.8514 14.0513H11.2822V27.5897Z" fill="white"/>
</svg>
