<svg width="91" height="91" viewBox="0 0 91 91" fill="none" xmlns="http://www.w3.org/2000/svg">
<path d="M22.7501 87.2083H11.3751C9.28966 87.2083 7.50442 86.4658 6.01935 84.9807C4.53428 83.4956 3.79175 81.7104 3.79175 79.625V68.25H11.3751V79.625H22.7501V87.2083ZM68.2501 87.2083V79.625H79.6251V68.25H87.2084V79.625C87.2084 81.7104 86.4659 83.4956 84.9808 84.9807C83.4957 86.4658 81.7105 87.2083 79.6251 87.2083H68.2501ZM45.5001 70.1458C37.9167 70.1458 31.0444 67.9024 24.8829 63.4156C18.7214 58.9288 14.2188 52.9569 11.3751 45.5C14.2188 38.043 18.7214 32.0711 24.8829 27.5843C31.0444 23.0975 37.9167 20.8541 45.5001 20.8541C53.0834 20.8541 59.9558 23.0975 66.1173 27.5843C72.2787 32.0711 76.7813 38.043 79.6251 45.5C76.7813 52.9569 72.2787 58.9288 66.1173 63.4156C59.9558 67.9024 53.0834 70.1458 45.5001 70.1458ZM45.5001 62.5625C51.0612 62.5625 56.1483 61.0458 60.7615 58.0125C65.3747 54.9791 68.9136 50.8083 71.3782 45.5C68.9136 40.1916 65.3747 36.0208 60.7615 32.9875C56.1483 29.9541 51.0612 28.4375 45.5001 28.4375C39.939 28.4375 34.8518 29.9541 30.2386 32.9875C25.6254 36.0208 22.0865 40.1916 19.622 45.5C22.0865 50.8083 25.6254 54.9791 30.2386 58.0125C34.8518 61.0458 39.939 62.5625 45.5001 62.5625ZM45.5001 58.7708C49.1654 58.7708 52.2935 57.4753 54.8845 54.8843C57.4754 52.2934 58.7709 49.1652 58.7709 45.5C58.7709 41.8347 57.4754 38.7066 54.8845 36.1156C52.2935 33.5246 49.1654 32.2291 45.5001 32.2291C41.8348 32.2291 38.7067 33.5246 36.1157 36.1156C33.5247 38.7066 32.2292 41.8347 32.2292 45.5C32.2292 49.1652 33.5247 52.2934 36.1157 54.8843C38.7067 57.4753 41.8348 58.7708 45.5001 58.7708ZM45.5001 51.1875C43.9202 51.1875 42.5773 50.6345 41.4714 49.5286C40.3655 48.4227 39.8126 47.0798 39.8126 45.5C39.8126 43.9201 40.3655 42.5772 41.4714 41.4713C42.5773 40.3654 43.9202 39.8125 45.5001 39.8125C47.0799 39.8125 48.4228 40.3654 49.5287 41.4713C50.6346 42.5772 51.1876 43.9201 51.1876 45.5C51.1876 47.0798 50.6346 48.4227 49.5287 49.5286C48.4228 50.6345 47.0799 51.1875 45.5001 51.1875ZM3.79175 22.75V11.375C3.79175 9.28954 4.53428 7.5043 6.01935 6.01923C7.50442 4.53416 9.28966 3.79163 11.3751 3.79163H22.7501V11.375H11.3751V22.75H3.79175ZM79.6251 22.75V11.375H68.2501V3.79163H79.6251C81.7105 3.79163 83.4957 4.53416 84.9808 6.01923C86.4659 7.5043 87.2084 9.28954 87.2084 11.375V22.75H79.6251Z" fill="white"/>
</svg>
