<svg width="99" height="99" viewBox="0 0 99 99" fill="none" xmlns="http://www.w3.org/2000/svg">
<path d="M32.4844 74.25C27.1906 74.25 23.1687 72.2906 20.4187 68.3719C17.6687 64.4531 16.3625 60.0531 16.5 55.1719L14.6437 52.3875C13.8875 51.2188 12.6328 48.5719 10.8797 44.4469C9.12656 40.3219 8.25 35.1313 8.25 28.875C8.25 21.7938 10.0031 15.8984 13.5094 11.1891C17.0156 6.47969 21.45 4.125 26.8125 4.125C32.6562 4.125 37.2109 6.72031 40.4766 11.9109C43.7422 17.1016 45.375 22.7563 45.375 28.875C45.375 32.8625 44.825 36.5406 43.725 39.9094C42.625 43.2781 41.6625 45.9937 40.8375 48.0562L41.6625 49.3969C42.2125 50.3594 42.9688 51.8891 43.9312 53.9859C44.8937 56.0828 45.375 58.2656 45.375 60.5344C45.375 64.4531 44.1547 67.7188 41.7141 70.3312C39.2734 72.9437 36.1969 74.25 32.4844 74.25ZM21.6562 47.85L33 45.5812C33.8937 43.3812 34.8047 40.8719 35.7328 38.0531C36.6609 35.2344 37.125 32.175 37.125 28.875C37.125 24.75 36.1797 20.9688 34.2891 17.5312C32.3984 14.0938 29.9062 12.375 26.8125 12.375C23.7188 12.375 21.2266 14.0938 19.3359 17.5312C17.4453 20.9688 16.5 24.75 16.5 28.875C16.5 33.2062 17.1016 37.0391 18.3047 40.3734C19.5078 43.7078 20.625 46.2 21.6562 47.85ZM32.4844 66C33.7906 66 34.8906 65.5187 35.7844 64.5562C36.6781 63.5938 37.125 62.2531 37.125 60.5344C37.125 59.3656 36.85 58.1625 36.3 56.925C35.75 55.6875 35.2 54.5875 34.65 53.625L24.75 55.6875C24.75 58.4375 25.3516 60.8438 26.5547 62.9062C27.7578 64.9688 29.7344 66 32.4844 66ZM66.5156 94.875C62.8031 94.875 59.7266 93.5687 57.2859 90.9562C54.8453 88.3438 53.625 85.0781 53.625 81.1594C53.625 78.8906 54.1063 76.7078 55.0687 74.6109C56.0312 72.5141 56.7875 70.9844 57.3375 70.0219L58.1625 68.6813C57.3375 66.6187 56.375 63.9031 55.275 60.5344C54.175 57.1656 53.625 53.4875 53.625 49.5C53.625 43.3812 55.2578 37.7266 58.5234 32.5359C61.7891 27.3453 66.3438 24.75 72.1875 24.75C77.55 24.75 81.9844 27.1047 85.4906 31.8141C88.9969 36.5234 90.75 42.4188 90.75 49.5C90.75 55.7562 89.8734 60.9297 88.1203 65.0203C86.3672 69.1109 85.1125 71.7406 84.3562 72.9094L82.5 75.7969C82.5687 80.6781 81.2453 85.0781 78.5297 88.9969C75.8141 92.9156 71.8094 94.875 66.5156 94.875ZM77.3438 68.475C78.375 66.825 79.4922 64.35 80.6953 61.05C81.8984 57.75 82.5 53.9 82.5 49.5C82.5 45.375 81.5547 41.5938 79.6641 38.1562C77.7734 34.7188 75.2812 33 72.1875 33C69.0938 33 66.6016 34.7188 64.7109 38.1562C62.8203 41.5938 61.875 45.375 61.875 49.5C61.875 52.8 62.3391 55.8422 63.2672 58.6266C64.1953 61.4109 65.1063 63.9375 66 66.2062L77.3438 68.475ZM66.5156 86.625C69.2656 86.625 71.2422 85.5938 72.4453 83.5312C73.6484 81.4688 74.25 79.0625 74.25 76.3125L64.35 74.25C63.8 75.2125 63.25 76.3125 62.7 77.55C62.15 78.7875 61.875 79.9906 61.875 81.1594C61.875 82.5344 62.3047 83.7891 63.1641 84.9234C64.0234 86.0578 65.1406 86.625 66.5156 86.625Z" fill="white"/>
</svg>
