<svg width="428" height="25" viewBox="0 0 428 25" fill="none" xmlns="http://www.w3.org/2000/svg">
<g clip-path="url(#clip0_48_381)">
<path fill-rule="evenodd" clip-rule="evenodd" d="M36.9305 4.90308C36.9305 5.28979 36.6141 5.6062 36.2273 5.6062C35.8406 5.6062 35.5242 5.28979 35.5242 4.90308C35.5242 4.51636 35.8406 4.19995 36.2273 4.19995C36.6141 4.19995 36.9305 4.51636 36.9305 4.90308ZM36.7313 13.1414H35.7117V6.82495H36.7313V13.1414ZM20.5 5.19995H21.5C22.0523 5.19995 22.5 5.64767 22.5 6.19995V14.2C22.5 14.7523 22.0523 15.2 21.5 15.2H20.5C19.9477 15.2 19.5 14.7523 19.5 14.2V6.19995C19.5 5.64767 19.9477 5.19995 20.5 5.19995ZM17 7.19995H16C15.4477 7.19995 15 7.64767 15 8.19995V14.2C15 14.7523 15.4477 15.2 16 15.2H17C17.5523 15.2 18 14.7523 18 14.2V8.19995C18 7.64767 17.5523 7.19995 17 7.19995ZM12.5 9.19995H11.5C10.9477 9.19995 10.5 9.64767 10.5 10.2V14.2C10.5 14.7523 10.9477 15.2 11.5 15.2H12.5C13.0523 15.2 13.5 14.7523 13.5 14.2V10.2C13.5 9.64767 13.0523 9.19995 12.5 9.19995ZM7 10.7H8C8.55228 10.7 9 11.1477 9 11.7V14.2C9 14.7523 8.55228 15.2 8 15.2H7C6.44771 15.2 6 14.7523 6 14.2V11.7C6 11.1477 6.44771 10.7 7 10.7ZM57.9914 13.2527C58.841 13.2527 59.5031 12.8835 59.9016 12.2097H59.9953V13.1414H61.0148V8.81714C61.0148 7.50464 60.1535 6.71362 58.6125 6.71362C57.2648 6.71362 56.3039 7.38159 56.1398 8.37183L56.134 8.40698H57.1535L57.1594 8.3894C57.3234 7.89722 57.8215 7.61597 58.5773 7.61597C59.5207 7.61597 59.9953 8.03784 59.9953 8.81714V9.39136L58.1848 9.50268C56.7141 9.59057 55.882 10.241 55.882 11.366V11.3777C55.882 12.5261 56.7902 13.2527 57.9914 13.2527ZM56.925 11.3543V11.3425C56.925 10.7156 57.3469 10.3757 58.3078 10.3171L59.9953 10.2117V10.7859C59.9953 11.6882 59.2395 12.3679 58.2023 12.3679C57.4699 12.3679 56.925 11.9929 56.925 11.3543ZM46.8852 13.1414H45.8656V6.82495H46.8852V7.78589H46.9789C47.2602 7.1062 47.8578 6.71362 48.684 6.71362C49.5395 6.71362 50.1371 7.16479 50.4301 7.82104H50.5238C50.8637 7.15307 51.5844 6.71362 52.4574 6.71362C53.7465 6.71362 54.4672 7.4519 54.4672 8.77612V13.1414H53.4477V9.0105C53.4477 8.07886 53.0199 7.61597 52.1293 7.61597C51.2504 7.61597 50.6703 8.27807 50.6703 9.08081V13.1414H49.6508V8.85229C49.6508 8.10229 49.1352 7.61597 48.3383 7.61597C47.5121 7.61597 46.8852 8.33667 46.8852 9.22729V13.1414ZM41.2047 15.368C42.9273 15.368 44.0172 14.4656 44.0172 13.0535V6.82495H42.9977V7.86792H42.9273C42.5406 7.15307 41.8492 6.71362 40.9586 6.71362C39.3063 6.71362 38.2867 7.99683 38.2867 9.76636V9.77807C38.2867 11.5476 39.3004 12.8132 40.9352 12.8132C41.8023 12.8132 42.5172 12.4207 42.9156 11.7234H43.0094V13.0007C43.0094 13.9324 42.3355 14.4656 41.2047 14.4656C40.2965 14.4656 39.734 14.1257 39.6227 13.6453L39.6168 13.6394H38.5621L38.5504 13.6453C38.7086 14.6824 39.6813 15.368 41.2047 15.368ZM41.1578 11.9109C39.9859 11.9109 39.3297 11.032 39.3297 9.77807V9.76636C39.3297 8.51245 39.9859 7.61597 41.1578 7.61597C42.3238 7.61597 43.0328 8.51245 43.0328 9.76636V9.77807C43.0328 11.032 42.3297 11.9109 41.1578 11.9109ZM29 13.1414H30.0547V9.47925H33.7988V8.54175H30.0547V5.6355H34.1328V4.68628H29V13.1414ZM72.1476 5.19995C74.6722 5.19995 77.0866 6.09052 78.9976 7.72289L79.1607 7.86223C79.2925 7.97483 79.3003 8.17553 79.1776 8.29792L78.0505 9.4219C77.9413 9.53079 77.7667 9.53842 77.6484 9.43947L77.5088 9.32278C76.0042 8.06467 74.1184 7.3803 72.1476 7.3803C70.17 7.3803 68.2781 8.06938 66.7712 9.33536L66.6316 9.45265C66.5133 9.55205 66.3384 9.54461 66.229 9.43552L65.1021 8.31171C64.9795 8.18949 64.9871 7.98913 65.1185 7.87641L65.281 7.73703C67.1944 6.09584 69.6154 5.19995 72.1476 5.19995ZM76.5101 10.1748C75.2658 9.19749 73.7384 8.66974 72.1476 8.66974C70.549 8.66974 69.0147 9.20262 67.7674 10.1887L67.5926 10.3269C67.453 10.4372 67.4411 10.6442 67.567 10.7698L68.6973 11.897C68.8022 12.0016 68.9683 12.0133 69.0869 11.9244L69.2249 11.821C70.0681 11.1893 71.0874 10.8501 72.1476 10.8501C73.2012 10.8501 74.2146 11.1851 75.055 11.8097L75.1928 11.9122C75.3114 12.0003 75.4769 11.9883 75.5815 11.884L76.7123 10.7564C76.8385 10.6305 76.8261 10.4231 76.6859 10.3129L76.5101 10.1748ZM73.9559 12.628C73.4084 12.3076 72.787 12.1395 72.1476 12.1395C71.4996 12.1395 70.8703 12.3121 70.3178 12.6406L70.0984 12.771C69.9317 12.8702 69.9031 13.0994 70.0404 13.2363L71.9223 15.113C72.0386 15.229 72.2272 15.229 72.3436 15.113L74.2377 13.2241C74.3755 13.0866 74.346 12.8563 74.1778 12.7578L73.9559 12.628Z" fill="white"/>
</g>
<g clip-path="url(#clip1_48_381)">
<path d="M228.054 14.5299H229.419V8.51822H229.519L231.863 14.5299H232.894L235.238 8.51822H235.343V14.5299H236.703V6.07486H234.968L232.431 12.5788H232.331L229.788 6.07486H228.054V14.5299Z" fill="white"/>
<path d="M218.896 14.5299H220.478L221.181 12.3444H224.31L225.019 14.5299H226.601L223.601 6.07486H221.896L218.896 14.5299ZM222.699 7.64517H222.798L223.935 11.1784H221.562L222.699 7.64517Z" fill="white"/>
<path d="M212.304 14.5299H213.816V6.07486H212.31L210.101 7.6276V9.05142L212.205 7.56314H212.304V14.5299Z" fill="white"/>
<path d="M206.216 14.5299H207.663V12.9069H208.8V11.6588H207.663V6.07486H205.525C204.376 7.82096 203.175 9.76627 202.08 11.6706V12.9069H206.216V14.5299ZM203.486 11.694V11.6061C204.306 10.1706 205.285 8.60611 206.152 7.28189H206.24V11.694H203.486Z" fill="white"/>
<path d="M199.455 9.05142C199.994 9.05142 200.386 8.64127 200.386 8.12564C200.386 7.60416 199.994 7.19986 199.455 7.19986C198.921 7.19986 198.523 7.60416 198.523 8.12564C198.523 8.64127 198.921 9.05142 199.455 9.05142ZM199.455 13.3991C199.994 13.3991 200.386 12.9948 200.386 12.4733C200.386 11.9518 199.994 11.5475 199.455 11.5475C198.921 11.5475 198.523 11.9518 198.523 12.4733C198.523 12.9948 198.921 13.3991 199.455 13.3991Z" fill="white"/>
<path d="M193.419 5.86392C191.585 5.86392 190.279 7.11783 190.279 8.83463V8.84635C190.279 10.4518 191.416 11.6354 193.039 11.6354C194.199 11.6354 194.937 11.0436 195.248 10.3756H195.365C195.365 10.4401 195.359 10.5045 195.359 10.569C195.294 12.1862 194.726 13.4987 193.384 13.4987C192.64 13.4987 192.119 13.112 191.896 12.5202L191.878 12.4616H190.39L190.402 12.526C190.671 13.821 191.832 14.7409 193.384 14.7409C195.511 14.7409 196.794 13.0534 196.794 10.2057V10.194C196.794 7.14713 195.224 5.86392 193.419 5.86392ZM193.414 10.4752C192.453 10.4752 191.755 9.77213 191.755 8.79361V8.78189C191.755 7.83853 192.5 7.09439 193.431 7.09439C194.369 7.09439 195.101 7.85025 195.101 8.81705V8.82877C195.101 9.78385 194.369 10.4752 193.414 10.4752Z" fill="white"/>
</g>
<g clip-path="url(#clip2_48_381)">
<path fill-rule="evenodd" clip-rule="evenodd" d="M353 10.2911V10.3033L350.044 12.9909L350.716 13.7308L353 11.6548V16.2002L356.993 12.5699L354.518 10.3199L356.993 8.06995L353 4.43967V8.93967L350.716 6.86364L350.044 7.60358L353 10.2911ZM355.507 8.06995L354 9.43967V6.70022L355.507 8.06995ZM354 13.9397L355.507 12.5699L354 11.2002V13.9397ZM398.5 4.81994H417.5C418.881 4.81994 420 5.93923 420 7.31995V13.8199C420 15.2006 418.881 16.3199 417.5 16.3199H398.5C397.119 16.3199 396 15.2006 396 13.8199V7.31995C396 5.93923 397.119 4.81994 398.5 4.81994ZM398.5 5.81995C397.672 5.81995 397 6.49152 397 7.31995V13.8199C397 14.6483 397.672 15.3199 398.5 15.3199H417.5C418.328 15.3199 419 14.6483 419 13.8199V7.31995C419 6.49152 418.328 5.81995 417.5 5.81995H398.5ZM421 8.11975C421.89 8.57493 422.5 9.50122 422.5 10.5699C422.5 11.6386 421.89 12.5649 421 13.02V8.11975ZM417 6.81995H399C398.448 6.81995 398 7.26766 398 7.81995V13.3199C398 13.8722 398.448 14.3199 399 14.3199H417C417.552 14.3199 418 13.8722 418 13.3199V7.81995C418 7.26766 417.552 6.81995 417 6.81995ZM384.41 10.6121C385.488 10.6121 386.145 9.73322 386.145 8.33282V8.32697C386.145 6.92657 385.488 6.05353 384.41 6.05353C383.332 6.05353 382.682 6.92657 382.682 8.32697V8.33282C382.682 9.73322 383.332 10.6121 384.41 10.6121ZM385.043 14.6199L390.797 6.16486H389.848L384.094 14.6199H385.043ZM384.41 9.91486C383.83 9.91486 383.496 9.32306 383.496 8.33282V8.32697C383.496 7.33673 383.83 6.75079 384.41 6.75079C384.99 6.75079 385.33 7.33673 385.33 8.32697V8.33282C385.33 9.32306 384.99 9.91486 384.41 9.91486ZM390.469 14.7312C391.547 14.7312 392.203 13.8524 392.203 12.452V12.4461C392.203 11.0457 391.547 10.1727 390.469 10.1727C389.391 10.1727 388.74 11.0457 388.74 12.4461V12.452C388.74 13.8524 389.391 14.7312 390.469 14.7312ZM390.469 14.034C389.889 14.034 389.555 13.4422 389.555 12.452V12.4461C389.555 11.4559 389.889 10.8699 390.469 10.8699C391.049 10.8699 391.389 11.4559 391.389 12.4461V12.452C391.389 13.4422 391.049 14.034 390.469 14.034ZM381.1 10.3953C381.1 13.1141 379.975 14.8191 378.105 14.8191C376.236 14.8191 375.123 13.1141 375.123 10.3953V10.3836C375.123 7.66486 376.236 5.96564 378.105 5.96564C379.975 5.96564 381.1 7.66486 381.1 10.3836V10.3953ZM376.184 10.3953C376.184 12.5516 376.893 13.8992 378.105 13.8992C379.318 13.8992 380.039 12.5516 380.039 10.3953V10.3836C380.039 8.22736 379.318 6.89142 378.105 6.89142C376.893 6.89142 376.184 8.22736 376.184 10.3836V10.3953ZM370.547 14.8191C372.416 14.8191 373.541 13.1141 373.541 10.3953V10.3836C373.541 7.66486 372.416 5.96564 370.547 5.96564C368.678 5.96564 367.564 7.66486 367.564 10.3836V10.3953C367.564 13.1141 368.678 14.8191 370.547 14.8191ZM370.547 13.8992C369.334 13.8992 368.625 12.5516 368.625 10.3953V10.3836C368.625 8.22736 369.334 6.89142 370.547 6.89142C371.76 6.89142 372.48 8.22736 372.48 10.3836V10.3953C372.48 12.5516 371.76 13.8992 370.547 13.8992ZM365.273 14.6199H364.219V7.33673H364.125L361.975 8.89532V7.78204L364.225 6.16486H365.273V14.6199ZM334.269 8.01219C334.1 7.78373 334 7.50102 334 7.19495C334 6.43555 334.616 5.81995 335.375 5.81995C335.647 5.81995 335.901 5.89917 336.115 6.03584C335.344 6.5259 334.707 7.20687 334.269 8.01219ZM343.37 10.5749C343.37 12.9912 341.411 14.9499 338.995 14.9499C336.579 14.9499 334.62 12.9912 334.62 10.5749C334.62 8.1587 336.579 6.19995 338.995 6.19995C341.411 6.19995 343.37 8.1587 343.37 10.5749ZM339.38 11.1949H337.25V10.4399H338.63V7.81995H339.38V11.1949ZM342.625 5.81995C342.35 5.81995 342.095 5.90041 341.88 6.03904C342.651 6.53044 343.288 7.213 343.725 8.01996C343.898 7.79015 344 7.50449 344 7.19495C344 6.43555 343.384 5.81995 342.625 5.81995Z" fill="white"/>
</g>
<defs>
<clipPath id="clip0_48_381">
<rect width="74" height="12" fill="white" transform="translate(6 4.19995)"/>
</clipPath>
<clipPath id="clip1_48_381">
<rect width="47" height="10" fill="white" transform="translate(190.14 5.52994)"/>
</clipPath>
<clipPath id="clip2_48_381">
<rect width="89" height="12" fill="white" transform="translate(334 4.31995)"/>
</clipPath>
</defs>
</svg>
