<svg width="428" height="20" viewBox="0 0 428 20" fill="none" xmlns="http://www.w3.org/2000/svg">
<g clip-path="url(#clip0_23_323)">
<path fill-rule="evenodd" clip-rule="evenodd" d="M36.9305 4.70312C36.9305 5.08984 36.6141 5.40625 36.2273 5.40625C35.8406 5.40625 35.5242 5.08984 35.5242 4.70312C35.5242 4.31641 35.8406 4 36.2273 4C36.6141 4 36.9305 4.31641 36.9305 4.70312ZM36.7313 12.9414H35.7117V6.625H36.7313V12.9414ZM20.5 5H21.5C22.0523 5 22.5 5.44772 22.5 6V14C22.5 14.5523 22.0523 15 21.5 15H20.5C19.9477 15 19.5 14.5523 19.5 14V6C19.5 5.44772 19.9477 5 20.5 5ZM17 7H16C15.4477 7 15 7.44772 15 8V14C15 14.5523 15.4477 15 16 15H17C17.5523 15 18 14.5523 18 14V8C18 7.44772 17.5523 7 17 7ZM12.5 9H11.5C10.9477 9 10.5 9.44772 10.5 10V14C10.5 14.5523 10.9477 15 11.5 15H12.5C13.0523 15 13.5 14.5523 13.5 14V10C13.5 9.44772 13.0523 9 12.5 9ZM7 10.5H8C8.55228 10.5 9 10.9477 9 11.5V14C9 14.5523 8.55228 15 8 15H7C6.44771 15 6 14.5523 6 14V11.5C6 10.9477 6.44771 10.5 7 10.5ZM57.9914 13.0527C58.841 13.0527 59.5031 12.6836 59.9016 12.0098H59.9953V12.9414H61.0148V8.61719C61.0148 7.30469 60.1535 6.51367 58.6125 6.51367C57.2648 6.51367 56.3039 7.18164 56.1398 8.17188L56.134 8.20703H57.1535L57.1594 8.18945C57.3234 7.69727 57.8215 7.41602 58.5773 7.41602C59.5207 7.41602 59.9953 7.83789 59.9953 8.61719V9.19141L58.1848 9.30273C56.7141 9.39062 55.882 10.041 55.882 11.166V11.1777C55.882 12.3262 56.7902 13.0527 57.9914 13.0527ZM56.925 11.1543V11.1426C56.925 10.5156 57.3469 10.1758 58.3078 10.1172L59.9953 10.0117V10.5859C59.9953 11.4883 59.2395 12.168 58.2023 12.168C57.4699 12.168 56.925 11.793 56.925 11.1543ZM46.8852 12.9414H45.8656V6.625H46.8852V7.58594H46.9789C47.2602 6.90625 47.8578 6.51367 48.684 6.51367C49.5395 6.51367 50.1371 6.96484 50.4301 7.62109H50.5238C50.8637 6.95312 51.5844 6.51367 52.4574 6.51367C53.7465 6.51367 54.4672 7.25195 54.4672 8.57617V12.9414H53.4477V8.81055C53.4477 7.87891 53.0199 7.41602 52.1293 7.41602C51.2504 7.41602 50.6703 8.07812 50.6703 8.88086V12.9414H49.6508V8.65234C49.6508 7.90234 49.1352 7.41602 48.3383 7.41602C47.5121 7.41602 46.8852 8.13672 46.8852 9.02734V12.9414ZM41.2047 15.168C42.9273 15.168 44.0172 14.2656 44.0172 12.8535V6.625H42.9977V7.66797H42.9273C42.5406 6.95312 41.8492 6.51367 40.9586 6.51367C39.3063 6.51367 38.2867 7.79688 38.2867 9.56641V9.57812C38.2867 11.3477 39.3004 12.6133 40.9352 12.6133C41.8023 12.6133 42.5172 12.2207 42.9156 11.5234H43.0094V12.8008C43.0094 13.7324 42.3355 14.2656 41.2047 14.2656C40.2965 14.2656 39.734 13.9258 39.6227 13.4453L39.6168 13.4395H38.5621L38.5504 13.4453C38.7086 14.4824 39.6813 15.168 41.2047 15.168ZM41.1578 11.7109C39.9859 11.7109 39.3297 10.832 39.3297 9.57812V9.56641C39.3297 8.3125 39.9859 7.41602 41.1578 7.41602C42.3238 7.41602 43.0328 8.3125 43.0328 9.56641V9.57812C43.0328 10.832 42.3297 11.7109 41.1578 11.7109ZM29 12.9414H30.0547V9.2793H33.7988V8.3418H30.0547V5.43555H34.1328V4.48633H29V12.9414ZM72.1476 5C74.6722 5 77.0866 5.89057 78.9976 7.52294L79.1607 7.66228C79.2925 7.77488 79.3003 7.97558 79.1776 8.09797L78.0505 9.22195C77.9413 9.33084 77.7667 9.33847 77.6484 9.23952L77.5088 9.12283C76.0042 7.86472 74.1184 7.18035 72.1476 7.18035C70.17 7.18035 68.2781 7.86943 66.7712 9.13541L66.6316 9.2527C66.5133 9.3521 66.3384 9.34466 66.229 9.23557L65.1021 8.11176C64.9795 7.98954 64.9871 7.78918 65.1185 7.67646L65.281 7.53708C67.1944 5.89589 69.6154 5 72.1476 5ZM76.5101 9.97486C75.2658 8.99754 73.7384 8.46979 72.1476 8.46979C70.549 8.46979 69.0147 9.00267 67.7674 9.98871L67.5926 10.1269C67.453 10.2373 67.4411 10.4442 67.567 10.5698L68.6973 11.697C68.8022 11.8016 68.9683 11.8133 69.0869 11.7245L69.2249 11.6211C70.0681 10.9893 71.0874 10.6501 72.1476 10.6501C73.2012 10.6501 74.2146 10.9852 75.055 11.6098L75.1928 11.7122C75.3114 11.8003 75.4769 11.7884 75.5815 11.6841L76.7123 10.5564C76.8385 10.4306 76.8261 10.2231 76.6859 10.113L76.5101 9.97486ZM73.9559 12.4281C73.4084 12.1076 72.787 11.9396 72.1476 11.9396C71.4996 11.9396 70.8703 12.1121 70.3178 12.4406L70.0984 12.5711C69.9317 12.6702 69.9031 12.8994 70.0404 13.0363L71.9223 14.913C72.0386 15.029 72.2272 15.029 72.3436 14.913L74.2377 13.0242C74.3755 12.8867 74.346 12.6563 74.1778 12.5579L73.9559 12.4281Z" fill="white"/>
</g>
<g clip-path="url(#clip1_23_323)">
<path d="M228.054 14.33H229.419V8.3183H229.519L231.863 14.33H232.894L235.238 8.3183H235.343V14.33H236.702V5.87494H234.968L232.431 12.3788H232.331L229.788 5.87494H228.054V14.33Z" fill="white"/>
<path d="M218.896 14.33H220.478L221.181 12.1445H224.31L225.019 14.33H226.601L223.601 5.87494H221.896L218.896 14.33ZM222.699 7.44525H222.798L223.935 10.9785H221.562L222.699 7.44525Z" fill="white"/>
<path d="M212.304 14.33H213.816V5.87494H212.31L210.101 7.42768V8.8515L212.205 7.36322H212.304V14.33Z" fill="white"/>
<path d="M206.216 14.33H207.663V12.707H208.8V11.4589H207.663V5.87494H205.525C204.376 7.62104 203.175 9.56635 202.079 11.4706V12.707H206.216V14.33ZM203.486 11.4941V11.4062C204.306 9.97064 205.284 8.40619 206.152 7.08197H206.24V11.4941H203.486Z" fill="white"/>
<path d="M199.454 8.8515C199.994 8.8515 200.386 8.44135 200.386 7.92572C200.386 7.40424 199.994 6.99994 199.454 6.99994C198.921 6.99994 198.523 7.40424 198.523 7.92572C198.523 8.44135 198.921 8.8515 199.454 8.8515ZM199.454 13.1992C199.994 13.1992 200.386 12.7949 200.386 12.2734C200.386 11.7519 199.994 11.3476 199.454 11.3476C198.921 11.3476 198.523 11.7519 198.523 12.2734C198.523 12.7949 198.921 13.1992 199.454 13.1992Z" fill="white"/>
<path d="M193.419 5.664C191.585 5.664 190.279 6.91791 190.279 8.63471V8.64643C190.279 10.2519 191.415 11.4355 193.038 11.4355C194.199 11.4355 194.937 10.8437 195.247 10.1757H195.365C195.365 10.2402 195.359 10.3046 195.359 10.3691C195.294 11.9863 194.726 13.2988 193.384 13.2988C192.64 13.2988 192.119 12.912 191.896 12.3202L191.878 12.2617H190.39L190.402 12.3261C190.671 13.621 191.831 14.541 193.384 14.541C195.511 14.541 196.794 12.8535 196.794 10.0058V9.99408C196.794 6.94721 195.224 5.664 193.419 5.664ZM193.413 10.2753C192.453 10.2753 191.755 9.57221 191.755 8.59369V8.58197C191.755 7.63861 192.499 6.89447 193.431 6.89447C194.369 6.89447 195.101 7.65033 195.101 8.61713V8.62885C195.101 9.58393 194.369 10.2753 193.413 10.2753Z" fill="white"/>
</g>
<g clip-path="url(#clip2_23_323)">
<path fill-rule="evenodd" clip-rule="evenodd" d="M353 10.0911V10.1033L350.044 12.7909L350.716 13.5308L353 11.4548V16.0003L356.993 12.37L354.518 10.12L356.993 7.86997L353 4.23969V8.73969L350.716 6.66366L350.044 7.40359L353 10.0911ZM355.507 7.86997L354 9.23969V6.50024L355.507 7.86997ZM354 13.7397L355.507 12.37L354 11.0002V13.7397ZM398.5 4.61996H417.5C418.881 4.61996 420 5.73925 420 7.11997V13.62C420 15.0007 418.881 16.12 417.5 16.12H398.5C397.119 16.12 396 15.0007 396 13.62V7.11997C396 5.73925 397.119 4.61996 398.5 4.61996ZM398.5 5.61997C397.672 5.61997 397 6.29154 397 7.11997V13.62C397 14.4484 397.672 15.12 398.5 15.12H417.5C418.328 15.12 419 14.4484 419 13.62V7.11997C419 6.29154 418.328 5.61997 417.5 5.61997H398.5ZM421 7.91976C421.89 8.37495 422.5 9.30124 422.5 10.3699C422.5 11.4386 421.89 12.3649 421 12.8201V7.91976ZM417 6.61997H399C398.448 6.61997 398 7.06768 398 7.61997V13.12C398 13.6722 398.448 14.12 399 14.12H417C417.552 14.12 418 13.6722 418 13.12V7.61997C418 7.06768 417.552 6.61997 417 6.61997ZM384.41 10.4121C385.488 10.4121 386.145 9.53324 386.145 8.13283V8.12699C386.145 6.72658 385.488 5.85355 384.41 5.85355C383.332 5.85355 382.682 6.72658 382.682 8.12699V8.13283C382.682 9.53324 383.332 10.4121 384.41 10.4121ZM385.043 14.42L390.797 5.96488H389.848L384.094 14.42H385.043ZM384.41 9.71488C383.83 9.71488 383.496 9.12308 383.496 8.13283V8.12699C383.496 7.13674 383.83 6.55081 384.41 6.55081C384.99 6.55081 385.33 7.13674 385.33 8.12699V8.13283C385.33 9.12308 384.99 9.71488 384.41 9.71488ZM390.469 14.5313C391.547 14.5313 392.203 13.6524 392.203 12.252V12.2461C392.203 10.8457 391.547 9.97268 390.469 9.97268C389.391 9.97268 388.74 10.8457 388.74 12.2461V12.252C388.74 13.6524 389.391 14.5313 390.469 14.5313ZM390.469 13.834C389.889 13.834 389.555 13.2422 389.555 12.252V12.2461C389.555 11.2559 389.889 10.6699 390.469 10.6699C391.049 10.6699 391.389 11.2559 391.389 12.2461V12.252C391.389 13.2422 391.049 13.834 390.469 13.834ZM381.1 10.1953C381.1 12.9141 379.975 14.6192 378.105 14.6192C376.236 14.6192 375.123 12.9141 375.123 10.1953V10.1836C375.123 7.46488 376.236 5.76566 378.105 5.76566C379.975 5.76566 381.1 7.46488 381.1 10.1836V10.1953ZM376.184 10.1953C376.184 12.3516 376.893 13.6992 378.105 13.6992C379.318 13.6992 380.039 12.3516 380.039 10.1953V10.1836C380.039 8.02738 379.318 6.69144 378.105 6.69144C376.893 6.69144 376.184 8.02738 376.184 10.1836V10.1953ZM370.547 14.6192C372.416 14.6192 373.541 12.9141 373.541 10.1953V10.1836C373.541 7.46488 372.416 5.76566 370.547 5.76566C368.678 5.76566 367.564 7.46488 367.564 10.1836V10.1953C367.564 12.9141 368.678 14.6192 370.547 14.6192ZM370.547 13.6992C369.334 13.6992 368.625 12.3516 368.625 10.1953V10.1836C368.625 8.02738 369.334 6.69144 370.547 6.69144C371.76 6.69144 372.48 8.02738 372.48 10.1836V10.1953C372.48 12.3516 371.76 13.6992 370.547 13.6992ZM365.273 14.42H364.219V7.13674H364.125L361.975 8.69533V7.58206L364.225 5.96488H365.273V14.42ZM334.269 7.81221C334.1 7.58375 334 7.30104 334 6.99497C334 6.23557 334.616 5.61997 335.375 5.61997C335.647 5.61997 335.901 5.69919 336.115 5.83586C335.344 6.32592 334.707 7.00689 334.269 7.81221ZM343.37 10.375C343.37 12.7912 341.411 14.75 338.995 14.75C336.579 14.75 334.62 12.7912 334.62 10.375C334.62 7.95872 336.579 5.99997 338.995 5.99997C341.411 5.99997 343.37 7.95872 343.37 10.375ZM339.38 10.995H337.25V10.24H338.63V7.61997H339.38V10.995ZM342.625 5.61997C342.35 5.61997 342.095 5.70043 341.88 5.83906C342.651 6.33046 343.288 7.01302 343.725 7.81998C343.898 7.59017 344 7.30451 344 6.99497C344 6.23557 343.384 5.61997 342.625 5.61997Z" fill="white"/>
</g>
<defs>
<clipPath id="clip0_23_323">
<rect width="74" height="12" fill="white" transform="translate(6 4)"/>
</clipPath>
<clipPath id="clip1_23_323">
<rect width="47" height="10" fill="white" transform="translate(190.14 5.33002)"/>
</clipPath>
<clipPath id="clip2_23_323">
<rect width="89" height="12" fill="white" transform="translate(334 4.12)"/>
</clipPath>
</defs>
</svg>
