<svg width="428" height="23" viewBox="0 0 428 23" fill="none" xmlns="http://www.w3.org/2000/svg">
<g clip-path="url(#clip0_25_2177)">
<path fill-rule="evenodd" clip-rule="evenodd" d="M36.9305 4.80316C36.9305 5.18988 36.6141 5.50629 36.2273 5.50629C35.8406 5.50629 35.5242 5.18988 35.5242 4.80316C35.5242 4.41644 35.8406 4.10004 36.2273 4.10004C36.6141 4.10004 36.9305 4.41644 36.9305 4.80316ZM36.7313 13.0414H35.7117V6.72504H36.7313V13.0414ZM20.5 5.10004H21.5C22.0523 5.10004 22.5 5.54776 22.5 6.10004V14.1C22.5 14.6523 22.0523 15.1 21.5 15.1H20.5C19.9477 15.1 19.5 14.6523 19.5 14.1V6.10004C19.5 5.54776 19.9477 5.10004 20.5 5.10004ZM17 7.10004H16C15.4477 7.10004 15 7.54776 15 8.10004V14.1C15 14.6523 15.4477 15.1 16 15.1H17C17.5523 15.1 18 14.6523 18 14.1V8.10004C18 7.54776 17.5523 7.10004 17 7.10004ZM12.5 9.10004H11.5C10.9477 9.10004 10.5 9.54776 10.5 10.1V14.1C10.5 14.6523 10.9477 15.1 11.5 15.1H12.5C13.0523 15.1 13.5 14.6523 13.5 14.1V10.1C13.5 9.54776 13.0523 9.10004 12.5 9.10004ZM7 10.6H8C8.55228 10.6 9 11.0478 9 11.6V14.1C9 14.6523 8.55228 15.1 8 15.1H7C6.44771 15.1 6 14.6523 6 14.1V11.6C6 11.0478 6.44771 10.6 7 10.6ZM57.9914 13.1528C58.841 13.1528 59.5031 12.7836 59.9016 12.1098H59.9953V13.0414H61.0148V8.71723C61.0148 7.40473 60.1535 6.61371 58.6125 6.61371C57.2648 6.61371 56.3039 7.28168 56.1398 8.27192L56.134 8.30707H57.1535L57.1594 8.28949C57.3234 7.79731 57.8215 7.51606 58.5773 7.51606C59.5207 7.51606 59.9953 7.93793 59.9953 8.71723V9.29145L58.1848 9.40277C56.7141 9.49066 55.882 10.1411 55.882 11.2661V11.2778C55.882 12.4262 56.7902 13.1528 57.9914 13.1528ZM56.925 11.2543V11.2426C56.925 10.6157 57.3469 10.2758 58.3078 10.2172L59.9953 10.1118V10.686C59.9953 11.5883 59.2395 12.268 58.2023 12.268C57.4699 12.268 56.925 11.893 56.925 11.2543ZM46.8852 13.0414H45.8656V6.72504H46.8852V7.68598H46.9789C47.2602 7.00629 47.8578 6.61371 48.684 6.61371C49.5395 6.61371 50.1371 7.06488 50.4301 7.72113H50.5238C50.8637 7.05316 51.5844 6.61371 52.4574 6.61371C53.7465 6.61371 54.4672 7.35199 54.4672 8.67621V13.0414H53.4477V8.91059C53.4477 7.97895 53.0199 7.51606 52.1293 7.51606C51.2504 7.51606 50.6703 8.17816 50.6703 8.9809V13.0414H49.6508V8.75238C49.6508 8.00238 49.1352 7.51606 48.3383 7.51606C47.5121 7.51606 46.8852 8.23676 46.8852 9.12738V13.0414ZM41.2047 15.268C42.9273 15.268 44.0172 14.3656 44.0172 12.9536V6.72504H42.9977V7.76801H42.9273C42.5406 7.05316 41.8492 6.61371 40.9586 6.61371C39.3063 6.61371 38.2867 7.89692 38.2867 9.66645V9.67816C38.2867 11.4477 39.3004 12.7133 40.9352 12.7133C41.8023 12.7133 42.5172 12.3207 42.9156 11.6235H43.0094V12.9008C43.0094 13.8325 42.3355 14.3656 41.2047 14.3656C40.2965 14.3656 39.734 14.0258 39.6227 13.5453L39.6168 13.5395H38.5621L38.5504 13.5453C38.7086 14.5824 39.6813 15.268 41.2047 15.268ZM41.1578 11.811C39.9859 11.811 39.3297 10.9321 39.3297 9.67816V9.66645C39.3297 8.41254 39.9859 7.51606 41.1578 7.51606C42.3238 7.51606 43.0328 8.41254 43.0328 9.66645V9.67816C43.0328 10.9321 42.3297 11.811 41.1578 11.811ZM29 13.0414H30.0547V9.37934H33.7988V8.44184H30.0547V5.53559H34.1328V4.58636H29V13.0414ZM72.1476 5.10004C74.6722 5.10004 77.0866 5.99061 78.9976 7.62298L79.1607 7.76232C79.2925 7.87492 79.3003 8.07562 79.1776 8.19801L78.0505 9.32199C77.9413 9.43088 77.7667 9.43851 77.6484 9.33956L77.5088 9.22287C76.0042 7.96476 74.1184 7.28039 72.1476 7.28039C70.17 7.28039 68.2781 7.96947 66.7712 9.23545L66.6316 9.35274C66.5133 9.45214 66.3384 9.4447 66.229 9.33561L65.1021 8.2118C64.9795 8.08958 64.9871 7.88922 65.1185 7.7765L65.281 7.63712C67.1944 5.99593 69.6154 5.10004 72.1476 5.10004ZM76.5101 10.0749C75.2658 9.09758 73.7384 8.56983 72.1476 8.56983C70.549 8.56983 69.0147 9.10271 67.7674 10.0887L67.5926 10.227C67.453 10.3373 67.4411 10.5443 67.567 10.6698L68.6973 11.7971C68.8022 11.9017 68.9683 11.9134 69.0869 11.8245L69.2249 11.7211C70.0681 11.0894 71.0874 10.7502 72.1476 10.7502C73.2012 10.7502 74.2146 11.0852 75.055 11.7098L75.1928 11.8122C75.3114 11.9004 75.4769 11.8884 75.5815 11.7841L76.7123 10.6565C76.8385 10.5306 76.8261 10.3231 76.6859 10.213L76.5101 10.0749ZM73.9559 12.5281C73.4084 12.2077 72.787 12.0396 72.1476 12.0396C71.4996 12.0396 70.8703 12.2122 70.3178 12.5407L70.0984 12.6711C69.9317 12.7703 69.9031 12.9994 70.0404 13.1363L71.9223 15.013C72.0386 15.129 72.2272 15.129 72.3436 15.013L74.2377 13.1242C74.3755 12.9867 74.346 12.7563 74.1778 12.6579L73.9559 12.5281Z" fill="white"/>
</g>
<g clip-path="url(#clip1_25_2177)">
<path d="M228.054 14.4301H229.419V8.41833H229.519L231.863 14.4301H232.894L235.238 8.41833H235.343V14.4301H236.702V5.97498H234.968L232.431 12.4789H232.331L229.788 5.97498H228.054V14.4301Z" fill="white"/>
<path d="M218.896 14.4301H220.478L221.181 12.2445H224.31L225.019 14.4301H226.601L223.601 5.97498H221.896L218.896 14.4301ZM222.699 7.54528H222.798L223.935 11.0785H221.562L222.699 7.54528Z" fill="white"/>
<path d="M212.304 14.4301H213.816V5.97498H212.31L210.101 7.52771V8.95153L212.205 7.46325H212.304V14.4301Z" fill="white"/>
<path d="M206.216 14.4301H207.663V12.807H208.8V11.559H207.663V5.97498H205.525C204.376 7.72107 203.175 9.66638 202.079 11.5707V12.807H206.216V14.4301ZM203.486 11.5941V11.5062C204.306 10.0707 205.284 8.50622 206.152 7.182H206.24V11.5941H203.486Z" fill="white"/>
<path d="M199.454 8.95154C199.994 8.95154 200.386 8.54139 200.386 8.02576C200.386 7.50428 199.994 7.09998 199.454 7.09998C198.921 7.09998 198.523 7.50428 198.523 8.02576C198.523 8.54139 198.921 8.95154 199.454 8.95154ZM199.454 13.2992C199.994 13.2992 200.386 12.8949 200.386 12.3734C200.386 11.8519 199.994 11.4476 199.454 11.4476C198.921 11.4476 198.523 11.8519 198.523 12.3734C198.523 12.8949 198.921 13.2992 199.454 13.2992Z" fill="white"/>
<path d="M193.419 5.76404C191.585 5.76404 190.279 7.01794 190.279 8.73474V8.74646C190.279 10.3519 191.415 11.5355 193.038 11.5355C194.199 11.5355 194.937 10.9437 195.247 10.2758H195.365C195.365 10.3402 195.359 10.4047 195.359 10.4691C195.294 12.0863 194.726 13.3988 193.384 13.3988C192.64 13.3988 192.119 13.0121 191.896 12.4203L191.878 12.3617H190.39L190.402 12.4261C190.671 13.7211 191.831 14.641 193.384 14.641C195.511 14.641 196.794 12.9535 196.794 10.1058V10.0941C196.794 7.04724 195.224 5.76404 193.419 5.76404ZM193.413 10.3754C192.453 10.3754 191.755 9.67224 191.755 8.69372V8.682C191.755 7.73864 192.499 6.9945 193.431 6.9945C194.369 6.9945 195.101 7.75036 195.101 8.71716V8.72888C195.101 9.68396 194.369 10.3754 193.413 10.3754Z" fill="white"/>
</g>
<g clip-path="url(#clip2_25_2177)">
<path fill-rule="evenodd" clip-rule="evenodd" d="M353 10.1912V10.2034L350.044 12.8909L350.716 13.6309L353 11.5548V16.1003L356.993 12.47L354.518 10.22L356.993 7.97L353 4.33972V8.83972L350.716 6.76369L350.044 7.50363L353 10.1912ZM355.507 7.97L354 9.33972V6.60027L355.507 7.97ZM354 13.8397L355.507 12.47L354 11.1003V13.8397ZM398.5 4.72H417.5C418.881 4.72 420 5.83928 420 7.22V13.72C420 15.1007 418.881 16.22 417.5 16.22H398.5C397.119 16.22 396 15.1007 396 13.72V7.22C396 5.83928 397.119 4.72 398.5 4.72ZM398.5 5.72C397.672 5.72 397 6.39157 397 7.22V13.72C397 14.5484 397.672 15.22 398.5 15.22H417.5C418.328 15.22 419 14.5484 419 13.72V7.22C419 6.39157 418.328 5.72 417.5 5.72H398.5ZM421 8.0198C421.89 8.47498 422.5 9.40127 422.5 10.47C422.5 11.5386 421.89 12.4649 421 12.9201V8.0198ZM417 6.72H399C398.448 6.72 398 7.16771 398 7.72V13.22C398 13.7723 398.448 14.22 399 14.22H417C417.552 14.22 418 13.7723 418 13.22V7.72C418 7.16771 417.552 6.72 417 6.72ZM384.41 10.5122C385.488 10.5122 386.145 9.63327 386.145 8.23287V8.22702C386.145 6.82662 385.488 5.95358 384.41 5.95358C383.332 5.95358 382.682 6.82662 382.682 8.22702V8.23287C382.682 9.63327 383.332 10.5122 384.41 10.5122ZM385.043 14.52L390.797 6.06491H389.848L384.094 14.52H385.043ZM384.41 9.81491C383.83 9.81491 383.496 9.22311 383.496 8.23287V8.22702C383.496 7.23678 383.83 6.65084 384.41 6.65084C384.99 6.65084 385.33 7.23678 385.33 8.22702V8.23287C385.33 9.22311 384.99 9.81491 384.41 9.81491ZM390.469 14.6313C391.547 14.6313 392.203 13.7524 392.203 12.352V12.3462C392.203 10.9458 391.547 10.0727 390.469 10.0727C389.391 10.0727 388.74 10.9458 388.74 12.3462V12.352C388.74 13.7524 389.391 14.6313 390.469 14.6313ZM390.469 13.9341C389.889 13.9341 389.555 13.3423 389.555 12.352V12.3462C389.555 11.3559 389.889 10.77 390.469 10.77C391.049 10.77 391.389 11.3559 391.389 12.3462V12.352C391.389 13.3423 391.049 13.9341 390.469 13.9341ZM381.1 10.2954C381.1 13.0141 379.975 14.7192 378.105 14.7192C376.236 14.7192 375.123 13.0141 375.123 10.2954V10.2837C375.123 7.56491 376.236 5.86569 378.105 5.86569C379.975 5.86569 381.1 7.56491 381.1 10.2837V10.2954ZM376.184 10.2954C376.184 12.4516 376.893 13.7993 378.105 13.7993C379.318 13.7993 380.039 12.4516 380.039 10.2954V10.2837C380.039 8.12741 379.318 6.79147 378.105 6.79147C376.893 6.79147 376.184 8.12741 376.184 10.2837V10.2954ZM370.547 14.7192C372.416 14.7192 373.541 13.0141 373.541 10.2954V10.2837C373.541 7.56491 372.416 5.86569 370.547 5.86569C368.678 5.86569 367.564 7.56491 367.564 10.2837V10.2954C367.564 13.0141 368.678 14.7192 370.547 14.7192ZM370.547 13.7993C369.334 13.7993 368.625 12.4516 368.625 10.2954V10.2837C368.625 8.12741 369.334 6.79147 370.547 6.79147C371.76 6.79147 372.48 8.12741 372.48 10.2837V10.2954C372.48 12.4516 371.76 13.7993 370.547 13.7993ZM365.273 14.52H364.219V7.23678H364.125L361.975 8.79537V7.68209L364.225 6.06491H365.273V14.52ZM334.269 7.91224C334.1 7.68378 334 7.40107 334 7.095C334 6.3356 334.616 5.72 335.375 5.72C335.647 5.72 335.901 5.79922 336.115 5.93589C335.344 6.42595 334.707 7.10692 334.269 7.91224ZM343.37 10.475C343.37 12.8912 341.411 14.85 338.995 14.85C336.579 14.85 334.62 12.8912 334.62 10.475C334.62 8.05875 336.579 6.1 338.995 6.1C341.411 6.1 343.37 8.05875 343.37 10.475ZM339.38 11.095H337.25V10.34H338.63V7.72H339.38V11.095ZM342.625 5.72C342.35 5.72 342.095 5.80046 341.88 5.93909C342.651 6.43049 343.288 7.11305 343.725 7.92001C343.898 7.6902 344 7.40454 344 7.095C344 6.3356 343.384 5.72 342.625 5.72Z" fill="white"/>
</g>
<defs>
<clipPath id="clip0_25_2177">
<rect width="74" height="12" fill="white" transform="translate(6 4.10004)"/>
</clipPath>
<clipPath id="clip1_25_2177">
<rect width="47" height="10" fill="white" transform="translate(190.14 5.43005)"/>
</clipPath>
<clipPath id="clip2_25_2177">
<rect width="89" height="12" fill="white" transform="translate(334 4.22003)"/>
</clipPath>
</defs>
</svg>
