<svg width="80" height="80" viewBox="0 0 80 80" fill="none" xmlns="http://www.w3.org/2000/svg">
<circle cx="40" cy="40" r="40" fill="white" fill-opacity="0.2"/>
<path d="M26.8333 63.6667H20.3333C19.1417 63.6667 18.1215 63.2424 17.2729 62.3937C16.4243 61.5451 16 60.525 16 59.3333V52.8333H20.3333V59.3333H26.8333V63.6667ZM52.8333 63.6667V59.3333H59.3333V52.8333H63.6667V59.3333C63.6667 60.525 63.2424 61.5451 62.3937 62.3937C61.5451 63.2424 60.525 63.6667 59.3333 63.6667H52.8333ZM39.8333 53.9167C35.5 53.9167 31.5729 52.6347 28.0521 50.0708C24.5312 47.5069 21.9583 44.0944 20.3333 39.8333C21.9583 35.5722 24.5312 32.1597 28.0521 29.5958C31.5729 27.0319 35.5 25.75 39.8333 25.75C44.1667 25.75 48.0937 27.0319 51.6146 29.5958C55.1354 32.1597 57.7083 35.5722 59.3333 39.8333C57.7083 44.0944 55.1354 47.5069 51.6146 50.0708C48.0937 52.6347 44.1667 53.9167 39.8333 53.9167ZM39.8333 49.5833C43.0111 49.5833 45.9181 48.7167 48.5542 46.9833C51.1903 45.25 53.2125 42.8667 54.6208 39.8333C53.2125 36.8 51.1903 34.4167 48.5542 32.6833C45.9181 30.95 43.0111 30.0833 39.8333 30.0833C36.6556 30.0833 33.7486 30.95 31.1125 32.6833C28.4764 34.4167 26.4542 36.8 25.0458 39.8333C26.4542 42.8667 28.4764 45.25 31.1125 46.9833C33.7486 48.7167 36.6556 49.5833 39.8333 49.5833ZM39.8333 47.4167C41.9278 47.4167 43.7153 46.6764 45.1958 45.1958C46.6764 43.7153 47.4167 41.9278 47.4167 39.8333C47.4167 37.7389 46.6764 35.9514 45.1958 34.4708C43.7153 32.9903 41.9278 32.25 39.8333 32.25C37.7389 32.25 35.9514 32.9903 34.4708 34.4708C32.9903 35.9514 32.25 37.7389 32.25 39.8333C32.25 41.9278 32.9903 43.7153 34.4708 45.1958C35.9514 46.6764 37.7389 47.4167 39.8333 47.4167ZM39.8333 43.0833C38.9306 43.0833 38.1632 42.7674 37.5312 42.1354C36.8993 41.5035 36.5833 40.7361 36.5833 39.8333C36.5833 38.9306 36.8993 38.1632 37.5312 37.5312C38.1632 36.8993 38.9306 36.5833 39.8333 36.5833C40.7361 36.5833 41.5035 36.8993 42.1354 37.5312C42.7674 38.1632 43.0833 38.9306 43.0833 39.8333C43.0833 40.7361 42.7674 41.5035 42.1354 42.1354C41.5035 42.7674 40.7361 43.0833 39.8333 43.0833ZM16 26.8333V20.3333C16 19.1417 16.4243 18.1215 17.2729 17.2729C18.1215 16.4243 19.1417 16 20.3333 16H26.8333V20.3333H20.3333V26.8333H16ZM59.3333 26.8333V20.3333H52.8333V16H59.3333C60.525 16 61.5451 16.4243 62.3937 17.2729C63.2424 18.1215 63.6667 19.1417 63.6667 20.3333V26.8333H59.3333Z" fill="white"/>
</svg>
