<svg width="80" height="80" viewBox="0 0 80 80" fill="none" xmlns="http://www.w3.org/2000/svg">
<circle cx="40" cy="40" r="40" fill="white" fill-opacity="0.2"/>
<g clip-path="url(#clip0_2029_590)">
<path d="M14 53V49.5875C14 48.0347 14.7944 46.7708 16.3833 45.7958C17.9722 44.8208 20.0667 44.3333 22.6667 44.3333C23.1361 44.3333 23.5875 44.3424 24.0208 44.3604C24.4542 44.3785 24.8694 44.4236 25.2667 44.4958C24.7611 45.2542 24.3819 46.0486 24.1292 46.8792C23.8764 47.7097 23.75 48.5764 23.75 49.4792V53H14ZM27 53V49.4792C27 48.3236 27.316 47.2674 27.9479 46.3104C28.5799 45.3535 29.4736 44.5139 30.6292 43.7917C31.7847 43.0694 33.166 42.5278 34.7729 42.1667C36.3799 41.8056 38.1222 41.625 40 41.625C41.9139 41.625 43.6743 41.8056 45.2812 42.1667C46.8882 42.5278 48.2694 43.0694 49.425 43.7917C50.5806 44.5139 51.4653 45.3535 52.0792 46.3104C52.6931 47.2674 53 48.3236 53 49.4792V53H27ZM56.25 53V49.4792C56.25 48.5403 56.1326 47.6556 55.8979 46.825C55.6632 45.9944 55.3111 45.2181 54.8417 44.4958C55.2389 44.4236 55.6451 44.3785 56.0604 44.3604C56.4757 44.3424 56.9 44.3333 57.3333 44.3333C59.9333 44.3333 62.0278 44.8118 63.6167 45.7687C65.2056 46.7257 66 47.9986 66 49.5875V53H56.25ZM31.6042 48.6667H48.45C48.0889 47.9444 47.0868 47.3125 45.4438 46.7708C43.8007 46.2292 41.9861 45.9583 40 45.9583C38.0139 45.9583 36.1993 46.2292 34.5562 46.7708C32.9132 47.3125 31.9292 47.9444 31.6042 48.6667ZM22.6667 42.1667C21.475 42.1667 20.4549 41.7424 19.6063 40.8938C18.7576 40.0451 18.3333 39.025 18.3333 37.8333C18.3333 36.6056 18.7576 35.5764 19.6063 34.7458C20.4549 33.9153 21.475 33.5 22.6667 33.5C23.8944 33.5 24.9236 33.9153 25.7542 34.7458C26.5847 35.5764 27 36.6056 27 37.8333C27 39.025 26.5847 40.0451 25.7542 40.8938C24.9236 41.7424 23.8944 42.1667 22.6667 42.1667ZM57.3333 42.1667C56.1417 42.1667 55.1215 41.7424 54.2729 40.8938C53.4243 40.0451 53 39.025 53 37.8333C53 36.6056 53.4243 35.5764 54.2729 34.7458C55.1215 33.9153 56.1417 33.5 57.3333 33.5C58.5611 33.5 59.5903 33.9153 60.4208 34.7458C61.2514 35.5764 61.6667 36.6056 61.6667 37.8333C61.6667 39.025 61.2514 40.0451 60.4208 40.8938C59.5903 41.7424 58.5611 42.1667 57.3333 42.1667ZM40 40C38.1944 40 36.6597 39.3681 35.3958 38.1042C34.1319 36.8403 33.5 35.3056 33.5 33.5C33.5 31.6583 34.1319 30.1146 35.3958 28.8687C36.6597 27.6229 38.1944 27 40 27C41.8417 27 43.3854 27.6229 44.6313 28.8687C45.8771 30.1146 46.5 31.6583 46.5 33.5C46.5 35.3056 45.8771 36.8403 44.6313 38.1042C43.3854 39.3681 41.8417 40 40 40ZM40 35.6667C40.6139 35.6667 41.1285 35.459 41.5438 35.0437C41.959 34.6285 42.1667 34.1139 42.1667 33.5C42.1667 32.8861 41.959 32.3715 41.5438 31.9563C41.1285 31.541 40.6139 31.3333 40 31.3333C39.3861 31.3333 38.8715 31.541 38.4563 31.9563C38.041 32.3715 37.8333 32.8861 37.8333 33.5C37.8333 34.1139 38.041 34.6285 38.4563 35.0437C38.8715 35.459 39.3861 35.6667 40 35.6667Z" fill="#E8EAED"/>
</g>
<defs>
<clipPath id="clip0_2029_590">
<rect width="52" height="52" fill="white" transform="translate(14 14)"/>
</clipPath>
</defs>
</svg>
