<svg width="52" height="52" viewBox="0 0 52 52" fill="none" xmlns="http://www.w3.org/2000/svg">
<g clip-path="url(#clip0_2029_588)">
<path d="M0 39V35.5875C0 34.0347 0.794444 32.7708 2.38333 31.7958C3.97222 30.8208 6.06667 30.3333 8.66667 30.3333C9.13611 30.3333 9.5875 30.3424 10.0208 30.3604C10.4542 30.3785 10.8694 30.4236 11.2667 30.4958C10.7611 31.2542 10.3819 32.0486 10.1292 32.8792C9.87639 33.7097 9.75 34.5764 9.75 35.4792V39H0ZM13 39V35.4792C13 34.3236 13.316 33.2674 13.9479 32.3104C14.5799 31.3535 15.4736 30.5139 16.6292 29.7917C17.7847 29.0694 19.166 28.5278 20.7729 28.1667C22.3799 27.8056 24.1222 27.625 26 27.625C27.9139 27.625 29.6743 27.8056 31.2812 28.1667C32.8882 28.5278 34.2694 29.0694 35.425 29.7917C36.5806 30.5139 37.4653 31.3535 38.0792 32.3104C38.6931 33.2674 39 34.3236 39 35.4792V39H13ZM42.25 39V35.4792C42.25 34.5403 42.1326 33.6556 41.8979 32.825C41.6632 31.9944 41.3111 31.2181 40.8417 30.4958C41.2389 30.4236 41.6451 30.3785 42.0604 30.3604C42.4757 30.3424 42.9 30.3333 43.3333 30.3333C45.9333 30.3333 48.0278 30.8118 49.6167 31.7687C51.2056 32.7257 52 33.9986 52 35.5875V39H42.25ZM17.6042 34.6667H34.45C34.0889 33.9444 33.0868 33.3125 31.4438 32.7708C29.8007 32.2292 27.9861 31.9583 26 31.9583C24.0139 31.9583 22.1993 32.2292 20.5562 32.7708C18.9132 33.3125 17.9292 33.9444 17.6042 34.6667ZM8.66667 28.1667C7.475 28.1667 6.45486 27.7424 5.60625 26.8938C4.75764 26.0451 4.33333 25.025 4.33333 23.8333C4.33333 22.6056 4.75764 21.5764 5.60625 20.7458C6.45486 19.9153 7.475 19.5 8.66667 19.5C9.89444 19.5 10.9236 19.9153 11.7542 20.7458C12.5847 21.5764 13 22.6056 13 23.8333C13 25.025 12.5847 26.0451 11.7542 26.8938C10.9236 27.7424 9.89444 28.1667 8.66667 28.1667ZM43.3333 28.1667C42.1417 28.1667 41.1215 27.7424 40.2729 26.8938C39.4243 26.0451 39 25.025 39 23.8333C39 22.6056 39.4243 21.5764 40.2729 20.7458C41.1215 19.9153 42.1417 19.5 43.3333 19.5C44.5611 19.5 45.5903 19.9153 46.4208 20.7458C47.2514 21.5764 47.6667 22.6056 47.6667 23.8333C47.6667 25.025 47.2514 26.0451 46.4208 26.8938C45.5903 27.7424 44.5611 28.1667 43.3333 28.1667ZM26 26C24.1944 26 22.6597 25.3681 21.3958 24.1042C20.1319 22.8403 19.5 21.3056 19.5 19.5C19.5 17.6583 20.1319 16.1146 21.3958 14.8687C22.6597 13.6229 24.1944 13 26 13C27.8417 13 29.3854 13.6229 30.6313 14.8687C31.8771 16.1146 32.5 17.6583 32.5 19.5C32.5 21.3056 31.8771 22.8403 30.6313 24.1042C29.3854 25.3681 27.8417 26 26 26ZM26 21.6667C26.6139 21.6667 27.1285 21.459 27.5438 21.0437C27.959 20.6285 28.1667 20.1139 28.1667 19.5C28.1667 18.8861 27.959 18.3715 27.5438 17.9563C27.1285 17.541 26.6139 17.3333 26 17.3333C25.3861 17.3333 24.8715 17.541 24.4563 17.9563C24.041 18.3715 23.8333 18.8861 23.8333 19.5C23.8333 20.1139 24.041 20.6285 24.4563 21.0437C24.8715 21.459 25.3861 21.6667 26 21.6667Z" fill="#E8EAED"/>
</g>
<defs>
<clipPath id="clip0_2029_588">
<rect width="52" height="52" fill="white"/>
</clipPath>
</defs>
</svg>
