<svg width="52" height="52" viewBox="0 0 52 52" fill="none" xmlns="http://www.w3.org/2000/svg">
<path d="M25.9999 47.6667C23.0388 47.6667 20.2402 47.098 17.6041 45.9605C14.968 44.823 12.6659 43.2702 10.6978 41.3021C8.72978 39.3341 7.177 37.032 6.0395 34.3959C4.902 31.7598 4.33325 28.9612 4.33325 26C4.33325 23.0028 4.902 20.1952 6.0395 17.5771C7.177 14.9591 8.72978 12.666 10.6978 10.698C12.6659 8.7299 14.968 7.17712 17.6041 6.03962C20.2402 4.90212 23.0388 4.33337 25.9999 4.33337C28.9971 4.33337 31.8048 4.90212 34.4228 6.03962C37.0409 7.17712 39.3339 8.7299 41.302 10.698C43.2701 12.666 44.8228 14.9591 45.9603 17.5771C47.0978 20.1952 47.6666 23.0028 47.6666 26C47.6666 28.9612 47.0978 31.7598 45.9603 34.3959C44.8228 37.032 43.2701 39.3341 41.302 41.3021C39.3339 43.2702 37.0409 44.823 34.4228 45.9605C31.8048 47.098 28.9971 47.6667 25.9999 47.6667ZM25.9999 43.225C26.9388 41.925 27.7513 40.5709 28.4374 39.1625C29.1235 37.7542 29.6833 36.2556 30.1166 34.6667H21.8833C22.3166 36.2556 22.8763 37.7542 23.5624 39.1625C24.2485 40.5709 25.061 41.925 25.9999 43.225ZM20.3666 42.3584C19.7166 41.1667 19.1478 39.9299 18.6603 38.648C18.1728 37.366 17.7666 36.0389 17.4416 34.6667H11.0499C12.0971 36.4723 13.4062 38.0431 14.977 39.3792C16.5478 40.7153 18.3444 41.7084 20.3666 42.3584ZM31.6333 42.3584C33.6555 41.7084 35.452 40.7153 37.0228 39.3792C38.5937 38.0431 39.9027 36.4723 40.9499 34.6667H34.5583C34.2332 36.0389 33.827 37.366 33.3395 38.648C32.852 39.9299 32.2833 41.1667 31.6333 42.3584ZM9.20825 30.3334H16.5749C16.4666 29.6112 16.3853 28.898 16.3312 28.1938C16.277 27.4896 16.2499 26.7584 16.2499 26C16.2499 25.2417 16.277 24.5105 16.3312 23.8063C16.3853 23.1021 16.4666 22.3889 16.5749 21.6667H9.20825C9.0277 22.3889 8.89228 23.1021 8.802 23.8063C8.71172 24.5105 8.66658 25.2417 8.66658 26C8.66658 26.7584 8.71172 27.4896 8.802 28.1938C8.89228 28.898 9.0277 29.6112 9.20825 30.3334ZM20.9083 30.3334H31.0916C31.1999 29.6112 31.2812 28.898 31.3353 28.1938C31.3895 27.4896 31.4166 26.7584 31.4166 26C31.4166 25.2417 31.3895 24.5105 31.3353 23.8063C31.2812 23.1021 31.1999 22.3889 31.0916 21.6667H20.9083C20.7999 22.3889 20.7187 23.1021 20.6645 23.8063C20.6103 24.5105 20.5833 25.2417 20.5833 26C20.5833 26.7584 20.6103 27.4896 20.6645 28.1938C20.7187 28.898 20.7999 29.6112 20.9083 30.3334ZM35.4249 30.3334H42.7916C42.9721 29.6112 43.1076 28.898 43.1978 28.1938C43.2881 27.4896 43.3332 26.7584 43.3332 26C43.3332 25.2417 43.2881 24.5105 43.1978 23.8063C43.1076 23.1021 42.9721 22.3889 42.7916 21.6667H35.4249C35.5333 22.3889 35.6145 23.1021 35.6687 23.8063C35.7228 24.5105 35.7499 25.2417 35.7499 26C35.7499 26.7584 35.7228 27.4896 35.6687 28.1938C35.6145 28.898 35.5333 29.6112 35.4249 30.3334ZM34.5583 17.3334H40.9499C39.9027 15.5278 38.5937 13.957 37.0228 12.6209C35.452 11.2848 33.6555 10.2917 31.6333 9.64171C32.2833 10.8334 32.852 12.0702 33.3395 13.3521C33.827 14.6341 34.2332 15.9612 34.5583 17.3334ZM21.8833 17.3334H30.1166C29.6833 15.7445 29.1235 14.2459 28.4374 12.8375C27.7513 11.4292 26.9388 10.075 25.9999 8.77504C25.061 10.075 24.2485 11.4292 23.5624 12.8375C22.8763 14.2459 22.3166 15.7445 21.8833 17.3334ZM11.0499 17.3334H17.4416C17.7666 15.9612 18.1728 14.6341 18.6603 13.3521C19.1478 12.0702 19.7166 10.8334 20.3666 9.64171C18.3444 10.2917 16.5478 11.2848 14.977 12.6209C13.4062 13.957 12.0971 15.5278 11.0499 17.3334Z" fill="#E8EAED"/>
</svg>
