<svg width="31" height="30" viewBox="0 0 31 30" fill="none" xmlns="http://www.w3.org/2000/svg">
<path d="M15.1887 17.5C14.1339 17.5 13.2374 17.1354 12.499 16.4062C11.7607 15.6771 11.3915 14.7917 11.3915 13.75V6.25C11.3915 5.20833 11.7607 4.32292 12.499 3.59375C13.2374 2.86458 14.1339 2.5 15.1887 2.5C16.2434 2.5 17.14 2.86458 17.8783 3.59375C18.6167 4.32292 18.9858 5.20833 18.9858 6.25V13.75C18.9858 14.7917 18.6167 15.6771 17.8783 16.4062C17.14 17.1354 16.2434 17.5 15.1887 17.5ZM13.923 26.25V22.4062C11.729 22.1146 9.91483 21.1458 8.48034 19.5C7.04586 17.8542 6.32861 15.9375 6.32861 13.75H8.86006C8.86006 15.4792 9.4771 16.9531 10.7112 18.1719C11.9453 19.3906 13.4378 20 15.1887 20C16.9396 20 18.4321 19.3906 19.6662 18.1719C20.9003 16.9531 21.5173 15.4792 21.5173 13.75H24.0487C24.0487 15.9375 23.3315 17.8542 21.897 19.5C20.4625 21.1458 18.6483 22.1146 16.4544 22.4062V26.25H13.923ZM15.1887 15C15.5473 15 15.8479 14.8802 16.0905 14.6406C16.3331 14.401 16.4544 14.1042 16.4544 13.75V6.25C16.4544 5.89583 16.3331 5.59896 16.0905 5.35938C15.8479 5.11979 15.5473 5 15.1887 5C14.8301 5 14.5294 5.11979 14.2868 5.35938C14.0443 5.59896 13.923 5.89583 13.923 6.25V13.75C13.923 14.1042 14.0443 14.401 14.2868 14.6406C14.5294 14.8802 14.8301 15 15.1887 15Z" fill="white"/>
</svg>
