<svg width="248" height="248" viewBox="0 0 248 248" fill="none" xmlns="http://www.w3.org/2000/svg">
<g opacity="0.6" clip-path="url(#clip0_2028_404)">
<path d="M220.506 0H27.4941C26.1279 0 25.0202 1.10771 25.0202 2.47394V245.526C25.0202 246.892 26.1279 248 27.4941 248H220.506C221.872 248 222.98 246.892 222.98 245.526V2.47394C222.98 1.10771 221.872 0 220.506 0ZM218.032 243.052H29.968V4.94788H218.032V243.052Z" fill="white"/>
<path d="M116.962 79.7214C118.328 79.7214 119.436 78.6137 119.436 77.2475V69.9358L123.967 70.1325C125.337 70.1974 126.486 69.1336 126.546 67.7686C126.605 66.4036 125.547 65.2489 124.182 65.1895L117.069 64.8803C116.386 64.8475 115.738 65.0986 115.251 65.5643C114.764 66.0313 114.488 66.677 114.488 67.3518V77.2475C114.488 78.6137 115.595 79.7214 116.962 79.7214Z" fill="white"/>
<path d="M115.146 188.518C114.091 187.652 112.531 187.805 111.665 188.862C110.798 189.919 110.953 191.478 112.009 192.344L127.472 205.023C127.932 205.4 128.487 205.584 129.039 205.584C129.754 205.584 130.464 205.275 130.953 204.678C131.819 203.622 131.665 202.063 130.609 201.197L115.146 188.518Z" fill="white"/>
<path d="M165 136.005C149.582 135.435 143.644 147.456 142.679 153.848L139.277 174.567C139.056 175.916 139.969 177.188 141.318 177.41C141.454 177.432 141.588 177.443 141.721 177.443C142.911 177.443 143.96 176.582 144.16 175.37L147.566 154.618C147.654 154.038 149.909 140.425 164.823 140.95C166.176 140.998 167.335 139.932 167.384 138.566C167.433 137.2 166.366 136.054 165 136.005Z" fill="white"/>
<path d="M49.3804 221.407C49.3804 222.773 50.4881 223.881 51.8544 223.881H196.146C197.512 223.881 198.62 222.773 198.62 221.407V26.5936C198.62 25.2273 197.512 24.1196 196.146 24.1196H51.8544C50.4881 24.1196 49.3804 25.2273 49.3804 26.5936V221.407ZM97.5214 101.501C96.1737 105.376 96.3024 110.842 96.5368 114.05C90.8393 115.107 78.0095 120.244 72.3237 144.812C70.5864 146.982 68.0747 149.298 65.4252 151.74C61.6815 155.19 57.6248 158.933 54.3289 163.404V76.629H91.2265C91.2092 85.4844 92.9861 96.8844 97.5214 101.501ZM193.672 171.458C188.867 153.642 180.671 130.939 169.415 114.798C166.031 109.944 158.482 103.444 154.427 99.9514L154.229 99.7807C153.367 94.1698 152.173 85.0651 151.105 76.6296H193.672V171.458H193.672ZM115.354 178.357C112.348 176.707 109.437 175.395 106.76 174.364C106.773 173.778 106.737 173.152 106.769 172.656C107.866 155.841 117.86 141.555 136.472 130.191C150.614 121.558 164.654 117.977 164.794 117.941C165.002 117.888 165.239 117.849 165.485 117.815C166.242 118.908 166.988 120.035 167.719 121.196C164.195 121.899 154.324 124.298 143.992 130.691C132.818 137.604 119.16 150.591 115.862 173.643C115.696 174.808 115.373 177.95 115.354 178.357ZM124.8 130.756C112.724 131.836 102.707 126.329 98.8518 121.71C100.054 117.012 109.92 109.47 116.985 105.363C117.808 104.885 118.284 103.977 118.209 103.028L117.789 97.7478C118.166 97.7799 118.544 97.8034 118.925 97.8121L119.588 97.8244C124.255 97.9234 128.788 96.3147 132.338 93.2718L132.362 93.2507L133.512 126.209C131.246 127.606 129.093 129.054 127.06 130.552C126.069 130.626 125.215 130.72 124.8 130.756ZM107.394 65.8055C107.387 65.8055 107.381 65.8055 107.376 65.8055L104.265 65.8271L103.461 55.6834C103.481 55.6382 103.506 55.5937 103.524 55.5473C105.082 54.0871 108.789 51.0311 112.884 50.6415C120.431 49.9216 129.709 50.9996 131.211 60.1668L132.142 86.9237L129.118 89.5139C126.497 91.7614 123.164 92.9539 119.692 92.8772L119.026 92.8648C115.281 92.7819 111.664 91.1627 109.104 88.4253C108.033 87.2762 107.165 85.9594 106.528 84.5159C105.891 83.0637 105.507 81.5391 105.387 79.9775L104.658 70.7719L107.41 70.7534C108.776 70.7435 109.876 69.629 109.867 68.2627C109.857 66.9021 108.752 65.8055 107.394 65.8055ZM149.48 101.446C149.572 102.023 149.864 102.548 150.306 102.931L151.198 103.701C153.799 105.94 158.417 109.921 161.934 113.596C158.211 114.67 148.763 117.701 138.365 123.386L137.129 87.9615C137.129 87.9479 137.128 87.9336 137.127 87.92L136.151 59.8445C136.148 59.7474 136.138 59.6503 136.124 59.5539C134.572 49.4726 125.93 44.4325 112.416 45.7159C110.404 45.9076 108.514 46.5205 106.823 47.3134C109.434 43.947 113.931 40.7569 121.618 40.7569C127.532 40.7569 132.744 43.1201 137.112 47.781C141.214 52.1574 143.788 57.7924 144.557 64.0762C145.814 74.3461 148.124 92.8574 149.48 101.446ZM99.0546 62.7094L100.455 80.3622C100.617 82.4749 101.136 84.5425 102 86.5105C102.863 88.4655 104.035 90.2449 105.488 91.8035C107.502 93.9577 110.001 95.5954 112.736 96.6147L113.155 101.897C111.356 103.01 108.001 105.176 104.591 107.849C103.405 108.78 102.328 109.684 101.34 110.568C101.305 107.212 101.621 103.722 102.671 102.089C103.051 101.498 103.162 100.773 102.976 100.096C102.79 99.4183 102.325 98.8524 101.697 98.5376C97.399 96.3883 94.8564 77.6829 96.8163 69.1435C97.3773 66.698 98.195 64.532 99.0546 62.7094ZM54.3283 218.933V173.441C57.2074 166.054 63.3446 160.386 68.7773 155.379C70.8505 153.469 72.8358 151.632 74.5317 149.804C77.0657 149.942 83.7125 150.751 85.5389 155.459C86.4907 159.943 88.3122 163.84 90.9698 166.98C91.459 167.558 92.1573 167.856 92.8599 167.856C93.4246 167.856 93.9917 167.664 94.4568 167.271C95.4996 166.388 95.6295 164.827 94.7475 163.784C85.5871 152.959 91.7343 134.517 91.7973 134.332C92.2402 133.04 91.553 131.635 90.2617 131.19C88.9641 130.746 87.5613 131.434 87.1173 132.726C87.0437 132.941 85.3039 138.063 84.8629 144.771C84.801 145.712 84.7751 146.634 84.7707 147.543C82.2949 146.104 79.5297 145.422 77.3409 145.103C81.5021 127.967 89.2022 121.958 94.2533 119.855C93.975 120.694 93.8186 121.509 93.7882 122.303C93.7672 122.846 93.9262 123.38 94.2391 123.824C96.5659 127.121 100.785 130.286 105.813 132.508C109.227 134.016 114.33 135.653 120.617 135.825C109.153 146.269 102.722 158.678 101.832 172.333C101.825 172.44 101.814 172.55 101.8 172.661C96.6908 171.115 93.1846 170.694 92.8222 170.654C92.2822 170.594 91.7275 170.716 91.2593 171.002C88.5633 172.65 86.748 175.221 86.0102 178.437C85.3311 181.398 85.6379 184.712 86.7913 187.573C84.4262 188.661 81.7433 189.217 79.6231 189.505C74.486 180.59 79.7437 176.225 80.4055 175.727C81.5002 174.925 81.7451 173.39 80.951 172.286C80.1531 171.177 78.6063 170.927 77.498 171.724C74.3276 174.006 70.1788 180.294 73.9782 189.26C71.2834 188.202 67.0889 185.233 67.8014 177.039C68.1106 173.483 69.3173 170.852 71.3892 169.22C74.8329 166.505 79.7357 167.197 79.8018 167.209C81.1409 167.412 82.4094 166.499 82.624 165.153C82.8392 163.803 81.9189 162.535 80.57 162.321C80.2836 162.274 73.5434 161.259 68.371 165.299C65.1567 167.81 63.3068 171.615 62.8721 176.609C61.4415 193.064 75.4508 194.732 75.5918 194.746C75.6784 194.755 85.3292 194.713 91.4485 190.634C91.5555 190.563 93.9726 189.112 93.9726 189.112C94.3907 189.654 94.9491 190.353 95.6103 191.141L85.8327 196.281C85.0194 196.708 84.5097 197.552 84.5097 198.47V205.892C84.5097 207.259 85.6174 208.366 86.9837 208.366C88.3499 208.366 89.4576 207.259 89.4576 205.892V199.965L99.0522 194.92C100.328 196.213 101.786 197.567 103.398 198.891L94.9504 201.353C94.2144 201.567 93.6206 202.11 93.3399 202.823L89.9382 211.482C89.4378 212.754 90.0644 214.19 91.336 214.689C91.6328 214.806 91.9396 214.861 92.2402 214.861C93.2279 214.861 94.1606 214.265 94.5434 213.291L97.501 205.763L108.511 202.555C110.306 203.655 112.217 204.641 114.237 205.418C114.529 205.53 114.829 205.584 115.124 205.584C116.118 205.584 117.056 204.98 117.434 203.997C117.924 202.722 117.288 201.291 116.012 200.8C104.854 196.508 97.4546 185.749 97.3829 185.644C96.7786 184.751 95.6678 184.352 94.635 184.655L91.3514 185.62C90.6129 183.712 90.3965 181.45 90.8338 179.542C91.2055 177.923 91.9854 176.634 93.158 175.7C97.3427 176.383 115.539 180.148 129.041 195.467C129.53 196.022 130.212 196.305 130.898 196.305C131.479 196.305 132.063 196.102 132.533 195.687C133.557 194.784 133.656 193.221 132.753 192.195C131.897 191.225 131.023 190.307 130.14 189.421L148.59 186.072C149.178 186.006 156.336 185.32 160.8 191.026C161.288 191.65 162.016 191.976 162.751 191.976C163.284 191.976 163.82 191.804 164.273 191.45C165.349 190.608 165.539 189.053 164.697 187.977C158.327 179.839 148.301 181.116 147.876 181.175C147.841 181.18 147.807 181.186 147.772 181.192L125.526 185.229C123.782 183.796 122.02 182.498 120.261 181.328C120.285 180.02 120.298 178.467 120.372 177.668C120.491 176.374 120.644 175.102 120.831 173.85C123.338 157.08 131.943 144.018 146.447 134.989C158.181 127.685 169.608 125.875 169.801 125.845C169.942 125.824 170.176 125.794 170.442 125.757C184.27 150.196 192.882 185.003 193.672 196.399V218.931H54.3283V218.933ZM193.672 29.0675V71.6811H150.483C150.106 68.6567 149.759 65.8445 149.469 63.475C148.572 56.1423 145.547 49.5455 140.723 44.3973C135.382 38.6979 128.955 35.8084 121.618 35.8084C105.664 35.8084 99.5451 47.661 98.4869 54.1056C96.8899 56.185 93.5835 61.1137 91.994 68.0345C91.7596 69.055 91.5765 70.2938 91.4467 71.6805H54.3283V29.0669L193.672 29.0675Z" fill="white"/>
</g>
<defs>
<clipPath id="clip0_2028_404">
<rect width="248" height="248" fill="white"/>
</clipPath>
</defs>
</svg>
