<svg width="430" height="80" viewBox="0 0 430 80" fill="none" xmlns="http://www.w3.org/2000/svg">
<rect width="430" height="80" fill="#6833AA"/>
<g filter="url(#filter0_d_28_290)">
<path opacity="0.6" d="M44.6936 47.7903L57.0323 42.0322L62.7903 29.6935L50.4516 35.4516L44.6936 47.7903ZM53.742 40.3871C53.2758 40.3871 52.8851 40.2294 52.5698 39.9141C52.2545 39.5988 52.0968 39.208 52.0968 38.7419C52.0968 38.2758 52.2545 37.885 52.5698 37.5697C52.8851 37.2544 53.2758 37.0967 53.742 37.0967C54.2081 37.0967 54.5988 37.2544 54.9141 37.5697C55.2295 37.885 55.3871 38.2758 55.3871 38.7419C55.3871 39.208 55.2295 39.5988 54.9141 39.9141C54.5988 40.2294 54.2081 40.3871 53.742 40.3871ZM53.742 55.1935C51.4662 55.1935 49.3274 54.7617 47.3258 53.8979C45.3242 53.0342 43.5831 51.8621 42.1024 50.3814C40.6218 48.9008 39.4496 47.1596 38.5859 45.158C37.7222 43.1564 37.2903 41.0177 37.2903 38.7419C37.2903 36.4661 37.7222 34.3274 38.5859 32.3258C39.4496 30.3242 40.6218 28.583 42.1024 27.1024C43.5831 25.6217 45.3242 24.4496 47.3258 23.5858C49.3274 22.7221 51.4662 22.2903 53.742 22.2903C56.0178 22.2903 58.1565 22.7221 60.1581 23.5858C62.1597 24.4496 63.9008 25.6217 65.3815 27.1024C66.8621 28.583 68.0343 30.3242 68.898 32.3258C69.7617 34.3274 70.1936 36.4661 70.1936 38.7419C70.1936 41.0177 69.7617 43.1564 68.898 45.158C68.0343 47.1596 66.8621 48.9008 65.3815 50.3814C63.9008 51.8621 62.1597 53.0342 60.1581 53.8979C58.1565 54.7617 56.0178 55.1935 53.742 55.1935ZM53.742 51.9032C57.4161 51.9032 60.5282 50.6282 63.0782 48.0782C65.6282 45.5282 66.9032 42.4161 66.9032 38.7419C66.9032 35.0677 65.6282 31.9556 63.0782 29.4056C60.5282 26.8556 57.4161 25.5806 53.742 25.5806C50.0678 25.5806 46.9557 26.8556 44.4057 29.4056C41.8557 31.9556 40.5807 35.0677 40.5807 38.7419C40.5807 42.4161 41.8557 45.5282 44.4057 48.0782C46.9557 50.6282 50.0678 51.9032 53.742 51.9032Z" fill="white"/>
</g>
<g opacity="0.6">
<path d="M377.742 38.7419C375.932 38.7419 374.383 38.0975 373.094 36.8088C371.806 35.5201 371.161 33.9709 371.161 32.1612C371.161 30.3515 371.806 28.8023 373.094 27.5136C374.383 26.2249 375.932 25.5806 377.742 25.5806C379.552 25.5806 381.101 26.2249 382.39 27.5136C383.678 28.8023 384.323 30.3515 384.323 32.1612C384.323 33.9709 383.678 35.5201 382.39 36.8088C381.101 38.0975 379.552 38.7419 377.742 38.7419ZM364.581 51.9031V47.2967C364.581 46.3644 364.821 45.5076 365.3 44.7261C365.78 43.9447 366.418 43.3483 367.213 42.937C368.913 42.087 370.64 41.4495 372.395 41.0245C374.15 40.5995 375.932 40.387 377.742 40.387C379.552 40.387 381.334 40.5995 383.089 41.0245C384.844 41.4495 386.571 42.087 388.271 42.937C389.066 43.3483 389.704 43.9447 390.184 44.7261C390.663 45.5076 390.903 46.3644 390.903 47.2967V51.9031H364.581ZM367.871 48.6128H387.613V47.2967C387.613 46.9951 387.538 46.7209 387.387 46.4741C387.236 46.2273 387.037 46.0354 386.79 45.8983C385.31 45.158 383.815 44.6027 382.307 44.2326C380.799 43.8624 379.277 43.6773 377.742 43.6773C376.206 43.6773 374.685 43.8624 373.177 44.2326C371.669 44.6027 370.174 45.158 368.694 45.8983C368.447 46.0354 368.248 46.2273 368.097 46.4741C367.946 46.7209 367.871 46.9951 367.871 47.2967V48.6128ZM377.742 35.4515C378.647 35.4515 379.421 35.1294 380.066 34.485C380.71 33.8406 381.032 33.0661 381.032 32.1612C381.032 31.2564 380.71 30.4818 380.066 29.8374C379.421 29.1931 378.647 28.8709 377.742 28.8709C376.837 28.8709 376.063 29.1931 375.418 29.8374C374.774 30.4818 374.452 31.2564 374.452 32.1612C374.452 33.0661 374.774 33.8406 375.418 34.485C376.063 35.1294 376.837 35.4515 377.742 35.4515Z" fill="white"/>
</g>
<g opacity="0.6">
<path d="M161.742 53.5485L159.356 51.4097C156.587 48.9146 154.298 46.7622 152.488 44.9525C150.678 43.1428 149.239 41.5182 148.169 40.0787C147.1 38.6392 146.353 37.3162 145.928 36.1097C145.503 34.9033 145.29 33.6694 145.29 32.4081C145.29 29.8307 146.154 27.6783 147.881 25.9509C149.609 24.2235 151.761 23.3597 154.339 23.3597C155.764 23.3597 157.122 23.6614 158.41 24.2646C159.699 24.8678 160.81 25.7178 161.742 26.8146C162.674 25.7178 163.785 24.8678 165.073 24.2646C166.362 23.6614 167.719 23.3597 169.145 23.3597C171.723 23.3597 173.875 24.2235 175.602 25.9509C177.33 27.6783 178.194 29.8307 178.194 32.4081C178.194 33.6694 177.981 34.9033 177.556 36.1097C177.131 37.3162 176.384 38.6392 175.314 40.0787C174.245 41.5182 172.806 43.1428 170.996 44.9525C169.186 46.7622 166.897 48.9146 164.127 51.4097L161.742 53.5485ZM161.742 49.1065C164.374 46.7485 166.54 44.7263 168.24 43.04C169.94 41.3537 171.284 39.8868 172.271 38.6392C173.258 37.3916 173.944 36.2811 174.327 35.3077C174.711 34.3343 174.903 33.3678 174.903 32.4081C174.903 30.763 174.355 29.392 173.258 28.2952C172.161 27.1985 170.79 26.6501 169.145 26.6501C167.856 26.6501 166.664 27.0134 165.567 27.74C164.47 28.4666 163.716 29.392 163.305 30.5162H160.179C159.768 29.392 159.014 28.4666 157.917 27.74C156.82 27.0134 155.627 26.6501 154.339 26.6501C152.694 26.6501 151.323 27.1985 150.226 28.2952C149.129 29.392 148.581 30.763 148.581 32.4081C148.581 33.3678 148.773 34.3343 149.156 35.3077C149.54 36.2811 150.226 37.3916 151.213 38.6392C152.2 39.8868 153.544 41.3537 155.244 43.04C156.944 44.7263 159.11 46.7485 161.742 49.1065Z" fill="#F9CA22"/>
</g>
<path d="M258.225 52.5451V26.2251C258.225 25.3203 258.547 24.5458 259.191 23.9015C259.836 23.2572 260.61 22.9351 261.515 22.9351H277.965C278.87 22.9351 279.644 23.2572 280.289 23.9015C280.933 24.5458 281.255 25.3203 281.255 26.2251V52.5451L269.74 47.6101L258.225 52.5451ZM261.515 47.5278L269.74 43.9911L277.965 47.5278V26.2251H261.515V47.5278Z" fill="white"/>
<defs>
<filter id="filter0_d_28_290" x="30" y="19" width="47.4839" height="47.4839" filterUnits="userSpaceOnUse" color-interpolation-filters="sRGB">
<feFlood flood-opacity="0" result="BackgroundImageFix"/>
<feColorMatrix in="SourceAlpha" type="matrix" values="0 0 0 0 0 0 0 0 0 0 0 0 0 0 0 0 0 0 127 0" result="hardAlpha"/>
<feOffset dy="4"/>
<feGaussianBlur stdDeviation="2"/>
<feComposite in2="hardAlpha" operator="out"/>
<feColorMatrix type="matrix" values="0 0 0 0 0 0 0 0 0 0 0 0 0 0 0 0 0 0 0.25 0"/>
<feBlend mode="normal" in2="BackgroundImageFix" result="effect1_dropShadow_28_290"/>
<feBlend mode="normal" in="SourceGraphic" in2="effect1_dropShadow_28_290" result="shape"/>
</filter>
</defs>
</svg>
