<svg width="90" height="90" viewBox="0 0 90 90" fill="none" xmlns="http://www.w3.org/2000/svg">
<path d="M22.5 82.5V66.375C18.9375 63.125 16.1719 59.3281 14.2031 54.9844C12.2344 50.6406 11.25 46.0625 11.25 41.25C11.25 31.875 14.5312 23.9062 21.0937 17.3438C27.6562 10.7812 35.625 7.5 45 7.5C52.8125 7.5 59.7344 9.79688 65.7656 14.3906C71.7969 18.9844 75.7187 24.9688 77.5312 32.3438L82.4062 51.5625C82.7187 52.75 82.5 53.8281 81.75 54.7969C81 55.7656 80 56.25 78.75 56.25H71.25V67.5C71.25 69.5625 70.5156 71.3281 69.0469 72.7969C67.5781 74.2656 65.8125 75 63.75 75H56.25V82.5H48.75V67.5H63.75V48.75H73.875L70.3125 34.2188C68.875 28.5312 65.8125 23.9062 61.125 20.3438C56.4375 16.7812 51.0625 15 45 15C37.75 15 31.5625 17.5312 26.4375 22.5938C21.3125 27.6562 18.75 33.8125 18.75 41.0625C18.75 44.8125 19.5156 48.375 21.0469 51.75C22.5781 55.125 24.75 58.125 27.5625 60.75L30 63V82.5H22.5ZM45 60C46.0625 60 46.9531 59.6406 47.6719 58.9219C48.3906 58.2031 48.75 57.3125 48.75 56.25C48.75 55.1875 48.3906 54.2969 47.6719 53.5781C46.9531 52.8594 46.0625 52.5 45 52.5C43.9375 52.5 43.0469 52.8594 42.3281 53.5781C41.6094 54.2969 41.25 55.1875 41.25 56.25C41.25 57.3125 41.6094 58.2031 42.3281 58.9219C43.0469 59.6406 43.9375 60 45 60ZM42.1875 48H47.9062C47.9062 46.4375 48.1094 45.1719 48.5156 44.2031C48.9219 43.2344 49.75 42.0625 51 40.6875C52.125 39.4375 53.2187 38.1719 54.2812 36.8906C55.3437 35.6094 55.875 33.9375 55.875 31.875C55.875 29.25 54.8594 27.0312 52.8281 25.2188C50.7969 23.4062 48.2812 22.5 45.2812 22.5C42.7812 22.5 40.5156 23.2188 38.4844 24.6562C36.4531 26.0938 35.0312 27.9688 34.2187 30.2812L39.375 32.4375C39.8125 31.0625 40.5781 29.9531 41.6719 29.1094C42.7656 28.2656 43.9687 27.8438 45.2812 27.8438C46.6562 27.8438 47.7969 28.2188 48.7031 28.9688C49.6094 29.7188 50.0625 30.6875 50.0625 31.875C50.0625 33.1875 49.6719 34.3594 48.8906 35.3906C48.1094 36.4219 47.1875 37.4688 46.125 38.5312C44.875 39.8438 43.9062 41.1562 43.2187 42.4688C42.5312 43.7812 42.1875 45.625 42.1875 48Z" fill="white"/>
</svg>
