<svg width="40" height="40" viewBox="0 0 40 40" fill="none" xmlns="http://www.w3.org/2000/svg">
<circle cx="20" cy="20" r="20" fill="#D9D9D9" fill-opacity="0.3"/>
<path d="M16.25 31.25H11.25C10.5625 31.25 9.97396 31.0052 9.48438 30.5156C8.99479 30.026 8.75 29.4375 8.75 28.75V20C8.75 18.4375 9.04688 16.974 9.64062 15.6094C10.2344 14.2448 11.0365 13.0573 12.0469 12.0469C13.0573 11.0365 14.2448 10.2344 15.6094 9.64062C16.974 9.04688 18.4375 8.75 20 8.75C21.5625 8.75 23.026 9.04688 24.3906 9.64062C25.7552 10.2344 26.9427 11.0365 27.9531 12.0469C28.9635 13.0573 29.7656 14.2448 30.3594 15.6094C30.9531 16.974 31.25 18.4375 31.25 20V28.75C31.25 29.4375 31.0052 30.026 30.5156 30.5156C30.026 31.0052 29.4375 31.25 28.75 31.25H23.75V21.25H28.75V20C28.75 17.5625 27.901 15.4948 26.2031 13.7969C24.5052 12.099 22.4375 11.25 20 11.25C17.5625 11.25 15.4948 12.099 13.7969 13.7969C12.099 15.4948 11.25 17.5625 11.25 20V21.25H16.25V31.25ZM13.75 23.75H11.25V28.75H13.75V23.75ZM26.25 23.75V28.75H28.75V23.75H26.25Z" fill="white"/>
</svg>
