<svg width="286" height="58" viewBox="0 0 286 58" fill="none" xmlns="http://www.w3.org/2000/svg">
<path d="M19.9125 37.8563L27 33.5812L34.0875 37.9125L32.2312 29.8125L38.475 24.4125L30.2625 23.6812L27 16.0312L23.7375 23.625L15.525 24.3562L21.7687 29.8125L19.9125 37.8563ZM13.1062 47.25L16.7625 31.4437L4.5 20.8125L20.7 19.4062L27 4.5L33.3 19.4062L49.5 20.8125L37.2375 31.4437L40.8937 47.25L27 38.8687L13.1062 47.25Z" fill="white"/>
<path d="M77.9125 38.8563L85 34.5812L92.0875 38.9125L90.2312 30.8125L96.475 25.4125L88.2625 24.6812L85 17.0312L81.7375 24.625L73.525 25.3562L79.7687 30.8125L77.9125 38.8563ZM71.1062 48.25L74.7625 32.4437L62.5 21.8125L78.7 20.4062L85 5.5L91.3 20.4062L107.5 21.8125L95.2375 32.4437L98.8937 48.25L85 39.8687L71.1062 48.25Z" fill="white"/>
<path d="M135.912 39.8563L143 35.5812L150.087 39.9125L148.231 31.8125L154.475 26.4125L146.262 25.6812L143 18.0312L139.737 25.625L131.525 26.3562L137.769 31.8125L135.912 39.8563ZM129.106 49.25L132.762 33.4437L120.5 22.8125L136.7 21.4062L143 6.5L149.3 21.4062L165.5 22.8125L153.237 33.4437L156.894 49.25L143 40.8687L129.106 49.25Z" fill="white"/>
<path d="M193.912 40.8563L201 36.5812L208.087 40.9125L206.231 32.8125L212.475 27.4125L204.262 26.6812L201 19.0312L197.737 26.625L189.525 27.3562L195.769 32.8125L193.912 40.8563ZM187.106 50.25L190.762 34.4437L178.5 23.8125L194.7 22.4062L201 7.5L207.3 22.4062L223.5 23.8125L211.237 34.4437L214.894 50.25L201 41.8687L187.106 50.25Z" fill="white"/>
<path d="M251.912 41.8563L259 37.5812L266.087 41.9125L264.231 33.8125L270.475 28.4125L262.262 27.6812L259 20.0312L255.737 27.625L247.525 28.3562L253.769 33.8125L251.912 41.8563ZM245.106 51.25L248.762 35.4437L236.5 24.8125L252.7 23.4062L259 8.5L265.3 23.4062L281.5 24.8125L269.237 35.4437L272.894 51.25L259 42.8687L245.106 51.25Z" fill="white"/>
</svg>
